<svg xmlns="http://www.w3.org/2000/svg" xmlns:xlink="http://www.w3.org/1999/xlink" contentStyleType="text/css" height="1042px" preserveAspectRatio="none" style="width:1048px;height:1042px;background:#FFFFFF;" version="1.1" viewBox="0 0 1048 1042" width="1048px" zoomAndPan="magnify"><defs/><g><!--class Publisher--><g id="elem_Publisher"><rect codeLine="1" fill="#F1F1F1" height="64.2969" id="Publisher" rx="2.5" ry="2.5" style="stroke:#181818;stroke-width:0.5;" width="96.5176" x="7" y="616.2"/><ellipse cx="22" cy="632.2" fill="#ADD1B2" rx="11" ry="11" style="stroke:#181818;stroke-width:1.0;"/><path d="M26.1094,638.2 L18.3906,638.2 L18.3906,625.8094 L26.1094,625.8094 L26.1094,627.9656 L20.8438,627.9656 L20.8438,630.6375 L25.6094,630.6375 L25.6094,632.7938 L20.8438,632.7938 L20.8438,636.0438 L26.1094,636.0438 L26.1094,638.2 Z " fill="#000000"/><text fill="#000000" font-family="sans-serif" font-size="14" lengthAdjust="spacing" textLength="64.5176" x="36" y="637.0467">Publisher</text><line style="stroke:#181818;stroke-width:0.5;" x1="8" x2="102.5176" y1="648.2" y2="648.2"/><ellipse cx="18" cy="661.8484" fill="#000000" rx="3" ry="3" style="stroke:#000000;stroke-width:1.0;"/><text fill="#000000" font-family="sans-serif" font-size="14" lengthAdjust="spacing" textLength="12.7764" x="27" y="665.1951">id</text><line style="stroke:#181818;stroke-width:1.0;" x1="8" x2="102.5176" y1="672.4969" y2="672.4969"/></g><!--class Subscriber--><g id="elem_Subscriber"><rect codeLine="6" fill="#F1F1F1" height="64.2969" id="Subscriber" rx="2.5" ry="2.5" style="stroke:#181818;stroke-width:0.5;" width="106.5391" x="424.99" y="616.2"/><ellipse cx="439.99" cy="632.2" fill="#ADD1B2" rx="11" ry="11" style="stroke:#181818;stroke-width:1.0;"/><path d="M444.0994,638.2 L436.3806,638.2 L436.3806,625.8094 L444.0994,625.8094 L444.0994,627.9656 L438.8338,627.9656 L438.8338,630.6375 L443.5994,630.6375 L443.5994,632.7938 L438.8338,632.7938 L438.8338,636.0438 L444.0994,636.0438 L444.0994,638.2 Z " fill="#000000"/><text fill="#000000" font-family="sans-serif" font-size="14" lengthAdjust="spacing" textLength="74.5391" x="453.99" y="637.0467">Subscriber</text><line style="stroke:#181818;stroke-width:0.5;" x1="425.99" x2="530.5291" y1="648.2" y2="648.2"/><ellipse cx="435.99" cy="661.8484" fill="#000000" rx="3" ry="3" style="stroke:#000000;stroke-width:1.0;"/><text fill="#000000" font-family="sans-serif" font-size="14" lengthAdjust="spacing" textLength="12.7764" x="444.99" y="665.1951">id</text><line style="stroke:#181818;stroke-width:1.0;" x1="425.99" x2="530.5291" y1="672.4969" y2="672.4969"/></g><!--class Subscription--><g id="elem_Subscription"><rect codeLine="11" fill="#F1F1F1" height="145.7813" id="Subscription" rx="2.5" ry="2.5" style="stroke:#181818;stroke-width:0.5;" width="251.4902" x="138.51" y="575.46"/><ellipse cx="216.5115" cy="591.46" fill="#ADD1B2" rx="11" ry="11" style="stroke:#181818;stroke-width:1.0;"/><path d="M220.6208,597.46 L212.9021,597.46 L212.9021,585.0694 L220.6208,585.0694 L220.6208,587.2256 L215.3552,587.2256 L215.3552,589.8975 L220.1208,589.8975 L220.1208,592.0538 L215.3552,592.0538 L215.3552,595.3038 L220.6208,595.3038 L220.6208,597.46 Z " fill="#000000"/><text fill="#000000" font-family="sans-serif" font-size="14" lengthAdjust="spacing" textLength="86.9873" x="237.0115" y="596.3067">Subscription</text><line style="stroke:#181818;stroke-width:0.5;" x1="139.51" x2="389.0002" y1="607.46" y2="607.46"/><ellipse cx="149.51" cy="621.1084" fill="#000000" rx="3" ry="3" style="stroke:#000000;stroke-width:1.0;"/><text fill="#000000" font-family="sans-serif" font-size="14" lengthAdjust="spacing" textLength="12.7764" x="158.51" y="624.4551">id</text><line style="stroke:#181818;stroke-width:1.0;" x1="139.51" x2="389.0002" y1="631.7569" y2="631.7569"/><ellipse cx="149.51" cy="645.4053" fill="#000000" rx="3" ry="3" style="stroke:#000000;stroke-width:1.0;"/><text fill="#000000" font-family="sans-serif" font-size="14" lengthAdjust="spacing" textLength="210.7246" x="158.51" y="648.752">publisher_id (FK:publisher(id))</text><ellipse cx="149.51" cy="661.7022" fill="#000000" rx="3" ry="3" style="stroke:#000000;stroke-width:1.0;"/><text fill="#000000" font-family="sans-serif" font-size="14" lengthAdjust="spacing" textLength="225.4902" x="158.51" y="665.0489">subscriver_id (FK:subscriver(id))</text><ellipse cx="149.51" cy="677.9991" fill="#000000" rx="3" ry="3" style="stroke:#000000;stroke-width:1.0;"/><text fill="#000000" font-family="sans-serif" font-size="14" lengthAdjust="spacing" textLength="111.9111" x="158.51" y="681.3457">start_date: date</text><text fill="#000000" font-family="sans-serif" font-size="14" lengthAdjust="spacing" textLength="105.6768" x="158.51" y="697.6426">end_date: date</text><text fill="#000000" font-family="sans-serif" font-size="14" lengthAdjust="spacing" textLength="141.2578" x="158.51" y="713.9395">plan_id (FK:plan(id))</text></g><!--class Plan--><g id="elem_Plan"><rect codeLine="21" fill="#F1F1F1" height="113.1875" id="Plan" rx="2.5" ry="2.5" style="stroke:#181818;stroke-width:0.5;" width="316.2334" x="106.14" y="781.24"/><ellipse cx="245.1146" cy="797.24" fill="#ADD1B2" rx="11" ry="11" style="stroke:#181818;stroke-width:1.0;"/><path d="M249.224,803.24 L241.5052,803.24 L241.5052,790.8494 L249.224,790.8494 L249.224,793.0056 L243.9584,793.0056 L243.9584,795.6775 L248.724,795.6775 L248.724,797.8338 L243.9584,797.8338 L243.9584,801.0838 L249.224,801.0838 L249.224,803.24 Z " fill="#000000"/><text fill="#000000" font-family="sans-serif" font-size="14" lengthAdjust="spacing" textLength="29.7842" x="265.6146" y="802.0867">Plan</text><line style="stroke:#181818;stroke-width:0.5;" x1="107.14" x2="421.3734" y1="813.24" y2="813.24"/><ellipse cx="117.14" cy="826.8884" fill="#000000" rx="3" ry="3" style="stroke:#000000;stroke-width:1.0;"/><text fill="#000000" font-family="sans-serif" font-size="14" lengthAdjust="spacing" textLength="12.7764" x="126.14" y="830.2351">id</text><line style="stroke:#181818;stroke-width:1.0;" x1="107.14" x2="421.3734" y1="837.5369" y2="837.5369"/><ellipse cx="117.14" cy="851.1853" fill="#000000" rx="3" ry="3" style="stroke:#000000;stroke-width:1.0;"/><text fill="#000000" font-family="sans-serif" font-size="14" lengthAdjust="spacing" textLength="290.2334" x="126.14" y="854.532">publisher_id (FK:publisher(id))(UNIQUE:1)</text><ellipse cx="117.14" cy="867.4822" fill="#000000" rx="3" ry="3" style="stroke:#000000;stroke-width:1.0;"/><text fill="#000000" font-family="sans-serif" font-size="14" lengthAdjust="spacing" textLength="123.6621" x="126.14" y="870.8289">name (UNIQUE:1)</text><ellipse cx="117.14" cy="883.7791" fill="#000000" rx="3" ry="3" style="stroke:#000000;stroke-width:1.0;"/><text fill="#000000" font-family="sans-serif" font-size="14" lengthAdjust="spacing" textLength="78.1279" x="126.14" y="887.1257">cost: bigint</text></g><!--class Payment--><g id="elem_Payment"><rect codeLine="29" fill="#F1F1F1" height="162.0781" id="Payment" rx="2.5" ry="2.5" style="stroke:#181818;stroke-width:0.5;" width="320.957" x="105.78" y="163.89"/><ellipse cx="231.0486" cy="179.89" fill="#ADD1B2" rx="11" ry="11" style="stroke:#181818;stroke-width:1.0;"/><path d="M235.1579,185.89 L227.4392,185.89 L227.4392,173.4994 L235.1579,173.4994 L235.1579,175.6556 L229.8923,175.6556 L229.8923,178.3275 L234.6579,178.3275 L234.6579,180.4838 L229.8923,180.4838 L229.8923,183.7338 L235.1579,183.7338 L235.1579,185.89 Z " fill="#000000"/><text fill="#000000" font-family="sans-serif" font-size="14" lengthAdjust="spacing" textLength="61.9199" x="251.5486" y="184.7367">Payment</text><line style="stroke:#181818;stroke-width:0.5;" x1="106.78" x2="425.737" y1="195.89" y2="195.89"/><ellipse cx="116.78" cy="209.5384" fill="#000000" rx="3" ry="3" style="stroke:#000000;stroke-width:1.0;"/><text fill="#000000" font-family="sans-serif" font-size="14" lengthAdjust="spacing" textLength="12.7764" x="125.78" y="212.8851">id</text><line style="stroke:#181818;stroke-width:1.0;" x1="106.78" x2="425.737" y1="220.1869" y2="220.1869"/><ellipse cx="116.78" cy="233.8353" fill="#000000" rx="3" ry="3" style="stroke:#000000;stroke-width:1.0;"/><text fill="#000000" font-family="sans-serif" font-size="14" lengthAdjust="spacing" textLength="90.5215" x="125.78" y="237.182">year: integer</text><ellipse cx="116.78" cy="250.1322" fill="#000000" rx="3" ry="3" style="stroke:#000000;stroke-width:1.0;"/><text fill="#000000" font-family="sans-serif" font-size="14" lengthAdjust="spacing" textLength="104.7266" x="125.78" y="253.4789">month: integer</text><ellipse cx="116.78" cy="266.4291" fill="#000000" rx="3" ry="3" style="stroke:#000000;stroke-width:1.0;"/><text fill="#000000" font-family="sans-serif" font-size="14" lengthAdjust="spacing" textLength="200.3408" x="125.78" y="269.7757">month_for_payment: integer</text><text fill="#000000" font-family="sans-serif" font-size="14" lengthAdjust="spacing" textLength="141.668" x="125.78" y="286.0726">payment_date: date</text><ellipse cx="116.78" cy="299.0228" fill="#000000" rx="3" ry="3" style="stroke:#000000;stroke-width:1.0;"/><text fill="#000000" font-family="sans-serif" font-size="14" lengthAdjust="spacing" textLength="294.957" x="125.78" y="302.3695">payment_status: (FK: payment_status(id))</text><ellipse cx="116.78" cy="315.3197" fill="#000000" rx="3" ry="3" style="stroke:#000000;stroke-width:1.0;"/><text fill="#000000" font-family="sans-serif" font-size="14" lengthAdjust="spacing" textLength="192.3496" x="125.78" y="318.6664">account_id (FK:account(id))</text></g><!--class Account--><g id="elem_Account"><rect codeLine="40" fill="#F1F1F1" height="129.4844" id="Account" rx="2.5" ry="2.5" style="stroke:#181818;stroke-width:0.5;" width="247.2314" x="142.64" y="385.97"/><ellipse cx="233.6195" cy="401.97" fill="#ADD1B2" rx="11" ry="11" style="stroke:#181818;stroke-width:1.0;"/><path d="M237.7289,407.97 L230.0101,407.97 L230.0101,395.5794 L237.7289,395.5794 L237.7289,397.7356 L232.4632,397.7356 L232.4632,400.4075 L237.2289,400.4075 L237.2289,402.5638 L232.4632,402.5638 L232.4632,405.8138 L237.7289,405.8138 L237.7289,407.97 Z " fill="#000000"/><text fill="#000000" font-family="sans-serif" font-size="14" lengthAdjust="spacing" textLength="56.7725" x="254.1195" y="406.8167">Account</text><line style="stroke:#181818;stroke-width:0.5;" x1="143.64" x2="388.8714" y1="417.97" y2="417.97"/><ellipse cx="153.64" cy="431.6184" fill="#000000" rx="3" ry="3" style="stroke:#000000;stroke-width:1.0;"/><text fill="#000000" font-family="sans-serif" font-size="14" lengthAdjust="spacing" textLength="12.7764" x="162.64" y="434.9651">id</text><line style="stroke:#181818;stroke-width:1.0;" x1="143.64" x2="388.8714" y1="442.2669" y2="442.2669"/><ellipse cx="153.64" cy="455.9153" fill="#000000" rx="3" ry="3" style="stroke:#000000;stroke-width:1.0;"/><text fill="#000000" font-family="sans-serif" font-size="14" lengthAdjust="spacing" textLength="39.7031" x="162.64" y="459.262">name</text><ellipse cx="153.64" cy="472.2122" fill="#000000" rx="3" ry="3" style="stroke:#000000;stroke-width:1.0;"/><text fill="#000000" font-family="sans-serif" font-size="14" lengthAdjust="spacing" textLength="38.6094" x="162.64" y="475.5589">email</text><ellipse cx="153.64" cy="488.5091" fill="#000000" rx="3" ry="3" style="stroke:#000000;stroke-width:1.0;"/><text fill="#000000" font-family="sans-serif" font-size="14" lengthAdjust="spacing" textLength="205.2627" x="162.64" y="491.8557">publisher_id (FK:publisher(id)</text><ellipse cx="153.64" cy="504.8059" fill="#000000" rx="3" ry="3" style="stroke:#000000;stroke-width:1.0;"/><text fill="#000000" font-family="sans-serif" font-size="14" lengthAdjust="spacing" textLength="221.2314" x="162.64" y="508.1526">subscriber_id (FK:subscriber(id)</text></g><!--class PaymentStatus--><g id="elem_PaymentStatus"><rect codeLine="49" fill="#F1F1F1" height="80.5938" id="PaymentStatus" rx="2.5" ry="2.5" style="stroke:#181818;stroke-width:0.5;" width="138.5313" x="196.99" y="15.15"/><ellipse cx="211.99" cy="31.15" fill="#ADD1B2" rx="11" ry="11" style="stroke:#181818;stroke-width:1.0;"/><path d="M216.0994,37.15 L208.3806,37.15 L208.3806,24.7594 L216.0994,24.7594 L216.0994,26.9156 L210.8338,26.9156 L210.8338,29.5875 L215.5994,29.5875 L215.5994,31.7437 L210.8338,31.7437 L210.8338,34.9937 L216.0994,34.9937 L216.0994,37.15 Z " fill="#000000"/><text fill="#000000" font-family="sans-serif" font-size="14" lengthAdjust="spacing" textLength="106.5313" x="225.99" y="35.9967">PaymentStatus</text><line style="stroke:#181818;stroke-width:0.5;" x1="197.99" x2="334.5213" y1="47.15" y2="47.15"/><ellipse cx="207.99" cy="60.7984" fill="#000000" rx="3" ry="3" style="stroke:#000000;stroke-width:1.0;"/><text fill="#000000" font-family="sans-serif" font-size="14" lengthAdjust="spacing" textLength="12.7764" x="216.99" y="64.1451">id</text><line style="stroke:#181818;stroke-width:1.0;" x1="197.99" x2="334.5213" y1="71.4469" y2="71.4469"/><ellipse cx="207.99" cy="85.0953" fill="#000000" rx="3" ry="3" style="stroke:#000000;stroke-width:1.0;"/><text fill="#000000" font-family="sans-serif" font-size="14" lengthAdjust="spacing" textLength="39.7031" x="216.99" y="88.442">name</text></g><g id="elem_GMN9"><path d="M370.93,35.32 L370.93,51.45 L335.74,55.45 L370.93,59.45 L370.93,75.5856 A0,0 0 0 0 370.93,75.5856 L469.581,75.5856 A0,0 0 0 0 469.581,75.5856 L469.581,45.32 L459.581,35.32 L370.93,35.32 A0,0 0 0 0 370.93,35.32 " fill="#FEFFDD" style="stroke:#181818;stroke-width:0.5;"/><path d="M459.581,35.32 L459.581,45.32 L469.581,45.32 L459.581,35.32 " fill="#FEFFDD" style="stroke:#181818;stroke-width:0.5;"/><text fill="#000000" font-family="sans-serif" font-size="13" lengthAdjust="spacing" textLength="77.651" x="376.93" y="52.3869">1:&#25903;&#25173;&#12356;&#26410;&#28168;</text><text fill="#000000" font-family="sans-serif" font-size="13" lengthAdjust="spacing" textLength="64.6509" x="376.93" y="67.5197">2:&#25903;&#25173;&#12356;&#28168;</text></g><!--class PlanStatus--><g id="elem_PlanStatus"><rect codeLine="57" fill="#F1F1F1" height="80.5938" id="PlanStatus" rx="2.5" ry="2.5" style="stroke:#181818;stroke-width:0.5;" width="106.3955" x="211.06" y="954.43"/><ellipse cx="226.06" cy="970.43" fill="#ADD1B2" rx="11" ry="11" style="stroke:#181818;stroke-width:1.0;"/><path d="M230.1694,976.43 L222.4506,976.43 L222.4506,964.0394 L230.1694,964.0394 L230.1694,966.1956 L224.9038,966.1956 L224.9038,968.8675 L229.6694,968.8675 L229.6694,971.0238 L224.9038,971.0238 L224.9038,974.2738 L230.1694,974.2738 L230.1694,976.43 Z " fill="#000000"/><text fill="#000000" font-family="sans-serif" font-size="14" lengthAdjust="spacing" textLength="74.3955" x="240.06" y="975.2767">PlanStatus</text><line style="stroke:#181818;stroke-width:0.5;" x1="212.06" x2="316.4555" y1="986.43" y2="986.43"/><ellipse cx="222.06" cy="1000.0784" fill="#000000" rx="3" ry="3" style="stroke:#000000;stroke-width:1.0;"/><text fill="#000000" font-family="sans-serif" font-size="14" lengthAdjust="spacing" textLength="12.7764" x="231.06" y="1003.4251">id</text><line style="stroke:#181818;stroke-width:1.0;" x1="212.06" x2="316.4555" y1="1010.7269" y2="1010.7269"/><ellipse cx="222.06" cy="1024.3753" fill="#000000" rx="3" ry="3" style="stroke:#000000;stroke-width:1.0;"/><text fill="#000000" font-family="sans-serif" font-size="14" lengthAdjust="spacing" textLength="39.7031" x="231.06" y="1027.722">name</text></g><g id="elem_GMN13"><path d="M352.93,974.59 L352.93,990.72 L317.48,994.72 L352.93,998.72 L352.93,1014.8556 A0,0 0 0 0 352.93,1014.8556 L425.5809,1014.8556 A0,0 0 0 0 425.5809,1014.8556 L425.5809,984.59 L415.5809,974.59 L352.93,974.59 A0,0 0 0 0 352.93,974.59 " fill="#FEFFDD" style="stroke:#181818;stroke-width:0.5;"/><path d="M415.5809,974.59 L415.5809,984.59 L425.5809,984.59 L415.5809,974.59 " fill="#FEFFDD" style="stroke:#181818;stroke-width:0.5;"/><text fill="#000000" font-family="sans-serif" font-size="13" lengthAdjust="spacing" textLength="38.6509" x="358.93" y="991.6569">1:&#20844;&#38283;</text><text fill="#000000" font-family="sans-serif" font-size="13" lengthAdjust="spacing" textLength="51.6509" x="358.93" y="1006.7897">2:&#38750;&#20844;&#38283;</text></g><!--class CommissionMaster--><g id="elem_CommissionMaster"><rect codeLine="65" fill="#F1F1F1" height="96.8906" id="CommissionMaster" rx="2.5" ry="2.5" style="stroke:#181818;stroke-width:0.5;" width="188.8594" x="852.83" y="7"/><ellipse cx="878.4621" cy="23" fill="#ADD1B2" rx="11" ry="11" style="stroke:#181818;stroke-width:1.0;"/><path d="M882.5715,29 L874.8528,29 L874.8528,16.6094 L882.5715,16.6094 L882.5715,18.7656 L877.3059,18.7656 L877.3059,21.4375 L882.0715,21.4375 L882.0715,23.5938 L877.3059,23.5938 L877.3059,26.8438 L882.5715,26.8438 L882.5715,29 Z " fill="#000000"/><text fill="#000000" font-family="sans-serif" font-size="14" lengthAdjust="spacing" textLength="133.2324" x="894.8248" y="27.8467">CommissionMaster</text><line style="stroke:#181818;stroke-width:0.5;" x1="853.83" x2="1040.6894" y1="39" y2="39"/><text fill="#000000" font-family="sans-serif" font-size="14" lengthAdjust="spacing" textLength="73.623" x="858.83" y="55.9951">from: date</text><text fill="#000000" font-family="sans-serif" font-size="14" lengthAdjust="spacing" textLength="54.79" x="858.83" y="72.292">to: date</text><text fill="#000000" font-family="sans-serif" font-size="14" lengthAdjust="spacing" textLength="176.8594" x="858.83" y="88.5889">commission_fee: decimal</text><line style="stroke:#181818;stroke-width:0.5;" x1="853.83" x2="1040.6894" y1="95.8906" y2="95.8906"/></g><g id="elem_GMN17"><path d="M504.54,35.32 L504.54,75.5856 A0,0 0 0 0 504.54,75.5856 L817.9832,75.5856 A0,0 0 0 0 817.9832,75.5856 L817.9832,59.45 L852.5,55.45 L817.9832,51.45 L817.9832,45.32 L807.9832,35.32 L504.54,35.32 A0,0 0 0 0 504.54,35.32 " fill="#FEFFDD" style="stroke:#181818;stroke-width:0.5;"/><path d="M807.9832,35.32 L807.9832,45.32 L817.9832,45.32 L807.9832,35.32 " fill="#FEFFDD" style="stroke:#181818;stroke-width:0.5;"/><text fill="#000000" font-family="sans-serif" font-size="13" lengthAdjust="spacing" textLength="263.4406" x="510.54" y="52.3869">from &#12363;&#12425; to &#12414;&#12391;&#12398;&#25163;&#25968;&#26009;&#12290;publisher &#12399;&#12289;</text><text fill="#000000" font-family="sans-serif" font-size="13" lengthAdjust="spacing" textLength="292.4432" x="510.54" y="67.5197">&#12469;&#12502;&#12473;&#12463;&#12522;&#12503;&#12471;&#12519;&#12531;&#12398; x % &#12434;&#12471;&#12473;&#12486;&#12512;&#12395;&#25903;&#25173;&#12358;&#12290;</text></g><!--link Publisher to Subscription--><g id="link_Publisher_Subscription"><path codeLine="73" d="M121.83,648.35 C133.32,648.35 118.81,648.35 130.3,648.35 " fill="none" id="Publisher-Subscription" style="stroke:#181818;stroke-width:1.0;"/><line style="stroke:#181818;stroke-width:1.0;" x1="111.83" x2="103.83" y1="648.35" y2="654.35"/><line style="stroke:#181818;stroke-width:1.0;" x1="111.83" x2="103.83" y1="648.35" y2="642.35"/><line style="stroke:#181818;stroke-width:1.0;" x1="111.83" x2="103.83" y1="648.35" y2="648.35"/><ellipse cx="117.83" cy="648.35" fill="none" rx="4" ry="4" style="stroke:#181818;stroke-width:1.0;"/><line style="stroke:#181818;stroke-width:1.0;" x1="134.3" x2="134.3" y1="644.35" y2="652.35"/><line style="stroke:#181818;stroke-width:1.0;" x1="131.3" x2="131.3" y1="644.35" y2="652.35"/><line style="stroke:#181818;stroke-width:1.0;" x1="130.3" x2="138.3" y1="648.35" y2="648.35"/></g><!--link Subscription to Subscriber--><g id="link_Subscription_Subscriber"><path codeLine="74" d="M398.49,648.35 C409.91,648.35 395.34,648.35 406.77,648.35 " fill="none" id="Subscription-Subscriber" style="stroke:#181818;stroke-width:1.0;"/><line style="stroke:#181818;stroke-width:1.0;" x1="394.49" x2="394.49" y1="652.35" y2="644.35"/><line style="stroke:#181818;stroke-width:1.0;" x1="397.49" x2="397.49" y1="652.35" y2="644.35"/><line style="stroke:#181818;stroke-width:1.0;" x1="398.49" x2="390.49" y1="648.35" y2="648.35"/><line style="stroke:#181818;stroke-width:1.0;" x1="416.77" x2="424.77" y1="648.35" y2="642.35"/><line style="stroke:#181818;stroke-width:1.0;" x1="416.77" x2="424.77" y1="648.35" y2="654.35"/><line style="stroke:#181818;stroke-width:1.0;" x1="416.77" x2="424.77" y1="648.35" y2="648.35"/><ellipse cx="410.77" cy="648.35" fill="none" rx="4" ry="4" style="stroke:#181818;stroke-width:1.0;"/></g><!--link Subscription to Plan--><g id="link_Subscription_Plan"><path codeLine="75" d="M264.26,739.57 C264.26,759.27 264.26,754.31 264.26,772.95 " fill="none" id="Subscription-Plan" style="stroke:#181818;stroke-width:1.0;"/><line style="stroke:#181818;stroke-width:1.0;" x1="264.26" x2="258.26" y1="729.57" y2="721.57"/><line style="stroke:#181818;stroke-width:1.0;" x1="264.26" x2="270.26" y1="729.57" y2="721.57"/><line style="stroke:#181818;stroke-width:1.0;" x1="264.26" x2="264.26" y1="729.57" y2="721.57"/><ellipse cx="264.26" cy="735.57" fill="none" rx="4" ry="4" style="stroke:#181818;stroke-width:1.0;"/><line style="stroke:#181818;stroke-width:1.0;" x1="268.26" x2="260.26" y1="776.95" y2="776.95"/><line style="stroke:#181818;stroke-width:1.0;" x1="268.26" x2="260.26" y1="773.95" y2="773.95"/><line style="stroke:#181818;stroke-width:1.0;" x1="264.26" x2="264.26" y1="772.95" y2="780.95"/></g><!--link PaymentStatus to Payment--><g id="link_PaymentStatus_Payment"><path codeLine="76" d="M266.26,104.21 C266.26,123.88 266.26,122.36 266.26,145.7 " fill="none" id="PaymentStatus-Payment" style="stroke:#181818;stroke-width:1.0;"/><line style="stroke:#181818;stroke-width:1.0;" x1="262.26" x2="270.26" y1="100.21" y2="100.21"/><line style="stroke:#181818;stroke-width:1.0;" x1="262.26" x2="270.26" y1="103.21" y2="103.21"/><line style="stroke:#181818;stroke-width:1.0;" x1="266.26" x2="266.26" y1="104.21" y2="96.21"/><line style="stroke:#181818;stroke-width:1.0;" x1="266.26" x2="272.26" y1="155.7" y2="163.7"/><line style="stroke:#181818;stroke-width:1.0;" x1="266.26" x2="260.26" y1="155.7" y2="163.7"/><line style="stroke:#181818;stroke-width:1.0;" x1="266.26" x2="266.26" y1="155.7" y2="163.7"/><ellipse cx="266.26" cy="149.7" fill="none" rx="4" ry="4" style="stroke:#181818;stroke-width:1.0;"/></g><!--link Account to Publisher--><g id="link_Account_Publisher"><path codeLine="78" d="M173.8851,527.5194 C151.9351,546.2094 142.1,555.36 121.26,575.46 C108.09,588.16 99.6327,596.9946 88.0727,609.8346 " fill="none" id="Account-Publisher" style="stroke:#181818;stroke-width:1.0;"/><line style="stroke:#181818;stroke-width:1.0;" x1="181.4989" x2="183.7002" y1="521.0364" y2="511.2817"/><line style="stroke:#181818;stroke-width:1.0;" x1="181.4989" x2="191.4798" y1="521.0364" y2="520.4183"/><line style="stroke:#181818;stroke-width:1.0;" x1="181.4989" x2="187.59" y1="521.0364" y2="515.85"/><ellipse cx="176.9306" cy="524.9262" fill="none" rx="4" ry="4" style="stroke:#181818;stroke-width:1.0;"/><line style="stroke:#181818;stroke-width:1.0;" x1="88.3691" x2="82.4237" y1="615.4837" y2="610.1309"/><line style="stroke:#181818;stroke-width:1.0;" x1="90.3764" x2="84.4309" y1="613.2541" y2="607.9014"/><line style="stroke:#181818;stroke-width:1.0;" x1="88.0727" x2="82.72" y1="609.8346" y2="615.78"/></g><!--link Account to Subscriber--><g id="link_Account_Subscriber"><path codeLine="79" d="M354.9594,527.7811 C376.4994,546.6511 386.29,555.68 407.26,575.46 C420.92,588.33 429.971,597.276 442.391,609.996 " fill="none" id="Account-Subscriber" style="stroke:#181818;stroke-width:1.0;"/><line style="stroke:#181818;stroke-width:1.0;" x1="347.4375" x2="337.4663" y1="521.1916" y2="520.4331"/><line style="stroke:#181818;stroke-width:1.0;" x1="347.4375" x2="345.3737" y1="521.1916" y2="511.4069"/><line style="stroke:#181818;stroke-width:1.0;" x1="347.4375" x2="341.42" y1="521.1916" y2="515.92"/><ellipse cx="351.9506" cy="525.1453" fill="none" rx="4" ry="4" style="stroke:#181818;stroke-width:1.0;"/><line style="stroke:#181818;stroke-width:1.0;" x1="448.0475" x2="442.3235" y1="610.0635" y2="615.6525"/><line style="stroke:#181818;stroke-width:1.0;" x1="445.9516" x2="440.2277" y1="607.9171" y2="613.506"/><line style="stroke:#181818;stroke-width:1.0;" x1="442.391" x2="447.98" y1="609.996" y2="615.72"/></g><!--link Payment to Account--><g id="link_Payment_Account"><path codeLine="81" d="M266.26,344.18 C266.26,363.9 266.26,358.74 266.26,377.58 " fill="none" id="Payment-Account" style="stroke:#181818;stroke-width:1.0;"/><line style="stroke:#181818;stroke-width:1.0;" x1="266.26" x2="260.26" y1="334.18" y2="326.18"/><line style="stroke:#181818;stroke-width:1.0;" x1="266.26" x2="272.26" y1="334.18" y2="326.18"/><line style="stroke:#181818;stroke-width:1.0;" x1="266.26" x2="266.26" y1="334.18" y2="326.18"/><ellipse cx="266.26" cy="340.18" fill="none" rx="4" ry="4" style="stroke:#181818;stroke-width:1.0;"/><line style="stroke:#181818;stroke-width:1.0;" x1="270.26" x2="262.26" y1="381.58" y2="381.58"/><line style="stroke:#181818;stroke-width:1.0;" x1="270.26" x2="262.26" y1="378.58" y2="378.58"/><line style="stroke:#181818;stroke-width:1.0;" x1="266.26" x2="266.26" y1="377.58" y2="385.58"/></g><!--link Plan to PlanStatus--><g id="link_Plan_PlanStatus"><path codeLine="83" d="M264.26,902.75 C264.26,922.51 264.26,928.3 264.26,946.39 " fill="none" id="Plan-PlanStatus" style="stroke:#181818;stroke-width:1.0;"/><line style="stroke:#181818;stroke-width:1.0;" x1="260.26" x2="268.26" y1="898.75" y2="898.75"/><line style="stroke:#181818;stroke-width:1.0;" x1="260.26" x2="268.26" y1="901.75" y2="901.75"/><line style="stroke:#181818;stroke-width:1.0;" x1="264.26" x2="264.26" y1="902.75" y2="894.75"/><line style="stroke:#181818;stroke-width:1.0;" x1="264.26" x2="270.26" y1="946.39" y2="954.39"/><line style="stroke:#181818;stroke-width:1.0;" x1="264.26" x2="258.26" y1="946.39" y2="954.39"/><line style="stroke:#181818;stroke-width:1.0;" x1="264.26" x2="264.26" y1="946.39" y2="954.39"/><line style="stroke:#181818;stroke-width:1.0;" x1="268.26" x2="260.26" y1="944.39" y2="944.39"/></g><!--SRC=[bLHDQzj04BtlhzXBmGdua1nrAwM5KbfIGcu1iPBMzeAqQwHrgR42aTI66DzAun9eIsw1fDI5KffSycUM2F8lEgjlAGuq5p5wy-PZt-mivPB9ATwPM2uBHjJ7CuJn9dFWs- -Z0uHeJjYTM87jCwjau0SfOya4xv2qFIvBcCp1lHUlZ0heCMTZ8-C4UOftDQb66Yn9V6awH583wo-065FkTA6nItXL3EmyGztm3c2FRxItz-RbsxtdnbRU32SUnHtC5e4qiCM6ZCjcFJBrm5nJSag9Rs1Wqo7rCyGJN8xMGEP0-EOuJzHqmsbpi2t2PWM3Q78I6Dc1Ec2jBB5jCG6yE7ZnszNjQGwlEOSM8pEeHvZx7sesfsxTcxfLaEv9k9lr_L03GET2KkopuGX4sZBIpwjqVgAY3-dNY_JgU9zlDw2huzQ5U6Jgsuy_xfOBdV7ks_VyfqhtJ7WU2m9OXzSaaCNc37pXLUEHeZBjYcmEg1uWjPb7tAgYImTGK4TZ5IrKF8TWi6vKTAwYd-byaPxyIfUdwZ2k10RtIXr6-rp5VrIoLF6rYbSgkL395nN_LScvIdv3B7wFds0LVz8OK98ZbPofwB9Kw0XI8bG_40UY7uQjPKUjpG_3lfWrteks5w9rk5OQjOS9SJgm014gRraPKJRGTJGgbHbBLy44N6-wBX3E6aF-1m00]--></g></svg>