<svg xmlns="http://www.w3.org/2000/svg" xmlns:xlink="http://www.w3.org/1999/xlink" contentStyleType="text/css" height="868px" preserveAspectRatio="none" style="width:949px;height:868px;background:#FFFFFF;" version="1.1" viewBox="0 0 949 868" width="949px" zoomAndPan="magnify"><defs/><g><!--class Subscription--><g id="elem_Subscription"><rect codeLine="1" fill="#F1F1F1" height="145.7813" id="Subscription" rx="2.5" ry="2.5" style="stroke:#181818;stroke-width:0.5;" width="251.4902" x="41.73" y="542.86"/><ellipse cx="119.7315" cy="558.86" fill="#ADD1B2" rx="11" ry="11" style="stroke:#181818;stroke-width:1.0;"/><path d="M123.8408,564.86 L116.1221,564.86 L116.1221,552.4694 L123.8408,552.4694 L123.8408,554.6256 L118.5752,554.6256 L118.5752,557.2975 L123.3408,557.2975 L123.3408,559.4538 L118.5752,559.4538 L118.5752,562.7038 L123.8408,562.7038 L123.8408,564.86 Z " fill="#000000"/><text fill="#000000" font-family="sans-serif" font-size="14" lengthAdjust="spacing" textLength="86.9873" x="140.2315" y="563.7067">Subscription</text><line style="stroke:#181818;stroke-width:0.5;" x1="42.73" x2="292.2202" y1="574.86" y2="574.86"/><ellipse cx="52.73" cy="588.5084" fill="#000000" rx="3" ry="3" style="stroke:#000000;stroke-width:1.0;"/><text fill="#000000" font-family="sans-serif" font-size="14" lengthAdjust="spacing" textLength="12.7764" x="61.73" y="591.8551">id</text><line style="stroke:#181818;stroke-width:1.0;" x1="42.73" x2="292.2202" y1="599.1569" y2="599.1569"/><ellipse cx="52.73" cy="612.8053" fill="#000000" rx="3" ry="3" style="stroke:#000000;stroke-width:1.0;"/><text fill="#000000" font-family="sans-serif" font-size="14" lengthAdjust="spacing" textLength="210.7246" x="61.73" y="616.152">publisher_id (FK:publisher(id))</text><ellipse cx="52.73" cy="629.1022" fill="#000000" rx="3" ry="3" style="stroke:#000000;stroke-width:1.0;"/><text fill="#000000" font-family="sans-serif" font-size="14" lengthAdjust="spacing" textLength="225.4902" x="61.73" y="632.4489">subscriver_id (FK:subscriver(id))</text><ellipse cx="52.73" cy="645.3991" fill="#000000" rx="3" ry="3" style="stroke:#000000;stroke-width:1.0;"/><text fill="#000000" font-family="sans-serif" font-size="14" lengthAdjust="spacing" textLength="111.9111" x="61.73" y="648.7457">start_date: date</text><text fill="#000000" font-family="sans-serif" font-size="14" lengthAdjust="spacing" textLength="105.6768" x="61.73" y="665.0426">end_date: date</text><ellipse cx="52.73" cy="677.9928" fill="#000000" rx="3" ry="3" style="stroke:#000000;stroke-width:1.0;"/><text fill="#000000" font-family="sans-serif" font-size="14" lengthAdjust="spacing" textLength="141.2578" x="61.73" y="681.3395">plan_id (FK:plan(id))</text></g><!--class Plan--><g id="elem_Plan"><rect codeLine="11" fill="#F1F1F1" height="113.1875" id="Plan" rx="2.5" ry="2.5" style="stroke:#181818;stroke-width:0.5;" width="316.2334" x="9.36" y="748.64"/><ellipse cx="148.3346" cy="764.64" fill="#ADD1B2" rx="11" ry="11" style="stroke:#181818;stroke-width:1.0;"/><path d="M152.444,770.64 L144.7252,770.64 L144.7252,758.2494 L152.444,758.2494 L152.444,760.4056 L147.1784,760.4056 L147.1784,763.0775 L151.944,763.0775 L151.944,765.2338 L147.1784,765.2338 L147.1784,768.4838 L152.444,768.4838 L152.444,770.64 Z " fill="#000000"/><text fill="#000000" font-family="sans-serif" font-size="14" lengthAdjust="spacing" textLength="29.7842" x="168.8346" y="769.4867">Plan</text><line style="stroke:#181818;stroke-width:0.5;" x1="10.36" x2="324.5934" y1="780.64" y2="780.64"/><ellipse cx="20.36" cy="794.2884" fill="#000000" rx="3" ry="3" style="stroke:#000000;stroke-width:1.0;"/><text fill="#000000" font-family="sans-serif" font-size="14" lengthAdjust="spacing" textLength="12.7764" x="29.36" y="797.6351">id</text><line style="stroke:#181818;stroke-width:1.0;" x1="10.36" x2="324.5934" y1="804.9369" y2="804.9369"/><ellipse cx="20.36" cy="818.5853" fill="#000000" rx="3" ry="3" style="stroke:#000000;stroke-width:1.0;"/><text fill="#000000" font-family="sans-serif" font-size="14" lengthAdjust="spacing" textLength="290.2334" x="29.36" y="821.932">publisher_id (FK:publisher(id))(UNIQUE:1)</text><ellipse cx="20.36" cy="834.8822" fill="#000000" rx="3" ry="3" style="stroke:#000000;stroke-width:1.0;"/><text fill="#000000" font-family="sans-serif" font-size="14" lengthAdjust="spacing" textLength="123.6621" x="29.36" y="838.2289">name (UNIQUE:1)</text><ellipse cx="20.36" cy="851.1791" fill="#000000" rx="3" ry="3" style="stroke:#000000;stroke-width:1.0;"/><text fill="#000000" font-family="sans-serif" font-size="14" lengthAdjust="spacing" textLength="78.1279" x="29.36" y="854.5257">cost: bigint</text></g><!--class Payment--><g id="elem_Payment"><rect codeLine="19" fill="#F1F1F1" height="129.4844" id="Payment" rx="2.5" ry="2.5" style="stroke:#181818;stroke-width:0.5;" width="320.957" x="7" y="163.89"/><ellipse cx="132.2686" cy="179.89" fill="#ADD1B2" rx="11" ry="11" style="stroke:#181818;stroke-width:1.0;"/><path d="M136.3779,185.89 L128.6592,185.89 L128.6592,173.4994 L136.3779,173.4994 L136.3779,175.6556 L131.1123,175.6556 L131.1123,178.3275 L135.8779,178.3275 L135.8779,180.4838 L131.1123,180.4838 L131.1123,183.7338 L136.3779,183.7338 L136.3779,185.89 Z " fill="#000000"/><text fill="#000000" font-family="sans-serif" font-size="14" lengthAdjust="spacing" textLength="61.9199" x="152.7686" y="184.7367">Payment</text><line style="stroke:#181818;stroke-width:0.5;" x1="8" x2="326.957" y1="195.89" y2="195.89"/><ellipse cx="18" cy="209.5384" fill="#000000" rx="3" ry="3" style="stroke:#000000;stroke-width:1.0;"/><text fill="#000000" font-family="sans-serif" font-size="14" lengthAdjust="spacing" textLength="12.7764" x="27" y="212.8851">id</text><line style="stroke:#181818;stroke-width:1.0;" x1="8" x2="326.957" y1="220.1869" y2="220.1869"/><ellipse cx="18" cy="233.8353" fill="#000000" rx="3" ry="3" style="stroke:#000000;stroke-width:1.0;"/><text fill="#000000" font-family="sans-serif" font-size="14" lengthAdjust="spacing" textLength="181.7881" x="27" y="237.182">month_for_payment: date</text><text fill="#000000" font-family="sans-serif" font-size="14" lengthAdjust="spacing" textLength="141.668" x="27" y="253.4789">payment_date: date</text><ellipse cx="18" cy="266.4291" fill="#000000" rx="3" ry="3" style="stroke:#000000;stroke-width:1.0;"/><text fill="#000000" font-family="sans-serif" font-size="14" lengthAdjust="spacing" textLength="294.957" x="27" y="269.7757">payment_status: (FK: payment_status(id))</text><ellipse cx="18" cy="282.7259" fill="#000000" rx="3" ry="3" style="stroke:#000000;stroke-width:1.0;"/><text fill="#000000" font-family="sans-serif" font-size="14" lengthAdjust="spacing" textLength="192.3496" x="27" y="286.0726">account_id (FK:account(id))</text></g><!--class Account--><g id="elem_Account"><rect codeLine="28" fill="#F1F1F1" height="129.4844" id="Account" rx="2.5" ry="2.5" style="stroke:#181818;stroke-width:0.5;" width="126.9189" x="104.02" y="353.38"/><ellipse cx="136.1859" cy="369.38" fill="#ADD1B2" rx="11" ry="11" style="stroke:#181818;stroke-width:1.0;"/><path d="M140.2953,375.38 L132.5765,375.38 L132.5765,362.9894 L140.2953,362.9894 L140.2953,365.1456 L135.0297,365.1456 L135.0297,367.8175 L139.7953,367.8175 L139.7953,369.9738 L135.0297,369.9738 L135.0297,373.2238 L140.2953,373.2238 L140.2953,375.38 Z " fill="#000000"/><text fill="#000000" font-family="sans-serif" font-size="14" lengthAdjust="spacing" textLength="56.7725" x="154.0006" y="374.2267">Account</text><line style="stroke:#181818;stroke-width:0.5;" x1="105.02" x2="229.9389" y1="385.38" y2="385.38"/><ellipse cx="115.02" cy="399.0284" fill="#000000" rx="3" ry="3" style="stroke:#000000;stroke-width:1.0;"/><text fill="#000000" font-family="sans-serif" font-size="14" lengthAdjust="spacing" textLength="12.7764" x="124.02" y="402.3751">id</text><line style="stroke:#181818;stroke-width:1.0;" x1="105.02" x2="229.9389" y1="409.6769" y2="409.6769"/><ellipse cx="115.02" cy="423.3253" fill="#000000" rx="3" ry="3" style="stroke:#000000;stroke-width:1.0;"/><text fill="#000000" font-family="sans-serif" font-size="14" lengthAdjust="spacing" textLength="39.7031" x="124.02" y="426.672">name</text><ellipse cx="115.02" cy="439.6222" fill="#000000" rx="3" ry="3" style="stroke:#000000;stroke-width:1.0;"/><text fill="#000000" font-family="sans-serif" font-size="14" lengthAdjust="spacing" textLength="100.9189" x="124.02" y="442.9689">email_address</text><ellipse cx="115.02" cy="455.9191" fill="#000000" rx="3" ry="3" style="stroke:#000000;stroke-width:1.0;"/><text fill="#000000" font-family="sans-serif" font-size="14" lengthAdjust="spacing" textLength="84.7383" x="124.02" y="459.2657">publisher_id</text><ellipse cx="115.02" cy="472.2159" fill="#000000" rx="3" ry="3" style="stroke:#000000;stroke-width:1.0;"/><text fill="#000000" font-family="sans-serif" font-size="14" lengthAdjust="spacing" textLength="92.7227" x="124.02" y="475.5626">subscriber_id</text></g><!--class PaymentStatus--><g id="elem_PaymentStatus"><rect codeLine="37" fill="#F1F1F1" height="80.5938" id="PaymentStatus" rx="2.5" ry="2.5" style="stroke:#181818;stroke-width:0.5;" width="138.5313" x="98.21" y="15.15"/><ellipse cx="113.21" cy="31.15" fill="#ADD1B2" rx="11" ry="11" style="stroke:#181818;stroke-width:1.0;"/><path d="M117.3194,37.15 L109.6006,37.15 L109.6006,24.7594 L117.3194,24.7594 L117.3194,26.9156 L112.0538,26.9156 L112.0538,29.5875 L116.8194,29.5875 L116.8194,31.7438 L112.0538,31.7438 L112.0538,34.9938 L117.3194,34.9938 L117.3194,37.15 Z " fill="#000000"/><text fill="#000000" font-family="sans-serif" font-size="14" lengthAdjust="spacing" textLength="106.5313" x="127.21" y="35.9967">PaymentStatus</text><line style="stroke:#181818;stroke-width:0.5;" x1="99.21" x2="235.7412" y1="47.15" y2="47.15"/><ellipse cx="109.21" cy="60.7984" fill="#000000" rx="3" ry="3" style="stroke:#000000;stroke-width:1.0;"/><text fill="#000000" font-family="sans-serif" font-size="14" lengthAdjust="spacing" textLength="12.7764" x="118.21" y="64.1451">id</text><line style="stroke:#181818;stroke-width:1.0;" x1="99.21" x2="235.7412" y1="71.4469" y2="71.4469"/><ellipse cx="109.21" cy="85.0953" fill="#000000" rx="3" ry="3" style="stroke:#000000;stroke-width:1.0;"/><text fill="#000000" font-family="sans-serif" font-size="14" lengthAdjust="spacing" textLength="39.7031" x="118.21" y="88.442">name</text></g><g id="elem_GMN7"><path d="M272.15,35.31 L272.15,51.45 L236.96,55.45 L272.15,59.45 L272.15,75.5756 A0,0 0 0 0 272.15,75.5756 L370.801,75.5756 A0,0 0 0 0 370.801,75.5756 L370.801,45.31 L360.801,35.31 L272.15,35.31 A0,0 0 0 0 272.15,35.31 " fill="#FEFFDD" style="stroke:#181818;stroke-width:0.5;"/><path d="M360.801,35.31 L360.801,45.31 L370.801,45.31 L360.801,35.31 " fill="#FEFFDD" style="stroke:#181818;stroke-width:0.5;"/><text fill="#000000" font-family="sans-serif" font-size="13" lengthAdjust="spacing" textLength="77.651" x="278.15" y="52.3769">1:&#25903;&#25173;&#12356;&#26410;&#28168;</text><text fill="#000000" font-family="sans-serif" font-size="13" lengthAdjust="spacing" textLength="64.6509" x="278.15" y="67.5097">2:&#25903;&#25173;&#12356;&#28168;</text></g><!--class CommissionMaster--><g id="elem_CommissionMaster"><rect codeLine="45" fill="#F1F1F1" height="96.8906" id="CommissionMaster" rx="2.5" ry="2.5" style="stroke:#181818;stroke-width:0.5;" width="188.8594" x="754.05" y="7"/><ellipse cx="779.6821" cy="23" fill="#ADD1B2" rx="11" ry="11" style="stroke:#181818;stroke-width:1.0;"/><path d="M783.7915,29 L776.0728,29 L776.0728,16.6094 L783.7915,16.6094 L783.7915,18.7656 L778.5259,18.7656 L778.5259,21.4375 L783.2915,21.4375 L783.2915,23.5938 L778.5259,23.5938 L778.5259,26.8438 L783.7915,26.8438 L783.7915,29 Z " fill="#000000"/><text fill="#000000" font-family="sans-serif" font-size="14" lengthAdjust="spacing" textLength="133.2324" x="796.0448" y="27.8467">CommissionMaster</text><line style="stroke:#181818;stroke-width:0.5;" x1="755.05" x2="941.9094" y1="39" y2="39"/><text fill="#000000" font-family="sans-serif" font-size="14" lengthAdjust="spacing" textLength="73.623" x="760.05" y="55.9951">from: date</text><text fill="#000000" font-family="sans-serif" font-size="14" lengthAdjust="spacing" textLength="54.79" x="760.05" y="72.292">to: date</text><text fill="#000000" font-family="sans-serif" font-size="14" lengthAdjust="spacing" textLength="176.8594" x="760.05" y="88.5889">commission_fee: decimal</text><line style="stroke:#181818;stroke-width:0.5;" x1="755.05" x2="941.9094" y1="95.8906" y2="95.8906"/></g><g id="elem_GMN11"><path d="M405.76,35.31 L405.76,75.5756 A0,0 0 0 0 405.76,75.5756 L719.2032,75.5756 A0,0 0 0 0 719.2032,75.5756 L719.2032,59.45 L753.72,55.45 L719.2032,51.45 L719.2032,45.31 L709.2032,35.31 L405.76,35.31 A0,0 0 0 0 405.76,35.31 " fill="#FEFFDD" style="stroke:#181818;stroke-width:0.5;"/><path d="M709.2032,35.31 L709.2032,45.31 L719.2032,45.31 L709.2032,35.31 " fill="#FEFFDD" style="stroke:#181818;stroke-width:0.5;"/><text fill="#000000" font-family="sans-serif" font-size="13" lengthAdjust="spacing" textLength="263.4406" x="411.76" y="52.3769">from &#12363;&#12425; to &#12414;&#12391;&#12398;&#25163;&#25968;&#26009;&#12290;publisher &#12399;&#12289;</text><text fill="#000000" font-family="sans-serif" font-size="13" lengthAdjust="spacing" textLength="292.4432" x="411.76" y="67.5097">&#12469;&#12502;&#12473;&#12463;&#12522;&#12503;&#12471;&#12519;&#12531;&#12398; x % &#12434;&#12471;&#12473;&#12486;&#12512;&#12395;&#25903;&#25173;&#12358;&#12290;</text></g><!--link Subscription to Account--><g id="link_Subscription_Account"><path codeLine="53" d="M181.1618,524.4301 C181.8118,505.0001 181.4629,510.1118 180.6029,491.1718 " fill="none" id="Subscription-Account" style="stroke:#181818;stroke-width:1.0;"/><line style="stroke:#181818;stroke-width:1.0;" x1="180.8275" x2="186.5566" y1="534.4245" y2="542.6206"/><line style="stroke:#181818;stroke-width:1.0;" x1="180.8275" x2="174.5634" y1="534.4245" y2="542.2194"/><line style="stroke:#181818;stroke-width:1.0;" x1="180.8275" x2="180.56" y1="534.4245" y2="542.42"/><ellipse cx="181.0281" cy="528.4278" fill="none" rx="4" ry="4" style="stroke:#181818;stroke-width:1.0;"/><line style="stroke:#181818;stroke-width:1.0;" x1="176.4256" x2="184.4173" y1="487.3573" y2="486.9944"/><line style="stroke:#181818;stroke-width:1.0;" x1="176.5616" x2="184.5534" y1="490.3542" y2="489.9914"/><line style="stroke:#181818;stroke-width:1.0;" x1="180.6029" x2="180.24" y1="491.1718" y2="483.18"/></g><!--link Account to Subscription--><g id="link_Account_Subscription"><path codeLine="54" d="M155.084,491.1725 C154.264,510.1125 153.9452,504.9989 154.5552,524.4289 " fill="none" id="Account-Subscription" style="stroke:#181818;stroke-width:1.0;"/><line style="stroke:#181818;stroke-width:1.0;" x1="151.2607" x2="159.2532" y1="487.0032" y2="487.3493"/><line style="stroke:#181818;stroke-width:1.0;" x1="151.131" x2="159.1235" y1="490.0004" y2="490.3465"/><line style="stroke:#181818;stroke-width:1.0;" x1="155.084" x2="155.43" y1="491.1725" y2="483.18"/><line style="stroke:#181818;stroke-width:1.0;" x1="154.869" x2="161.117" y1="534.4239" y2="542.2317"/><line style="stroke:#181818;stroke-width:1.0;" x1="154.869" x2="149.123" y1="534.4239" y2="542.6083"/><line style="stroke:#181818;stroke-width:1.0;" x1="154.869" x2="155.12" y1="534.4239" y2="542.42"/><ellipse cx="154.6807" cy="528.4269" fill="none" rx="4" ry="4" style="stroke:#181818;stroke-width:1.0;"/></g><!--link Subscription to Plan--><g id="link_Subscription_Plan"><path codeLine="55" d="M167.48,706.97 C167.48,726.67 167.48,721.72 167.48,740.36 " fill="none" id="Subscription-Plan" style="stroke:#181818;stroke-width:1.0;"/><line style="stroke:#181818;stroke-width:1.0;" x1="167.48" x2="161.48" y1="696.97" y2="688.97"/><line style="stroke:#181818;stroke-width:1.0;" x1="167.48" x2="173.48" y1="696.97" y2="688.97"/><line style="stroke:#181818;stroke-width:1.0;" x1="167.48" x2="167.48" y1="696.97" y2="688.97"/><ellipse cx="167.48" cy="702.97" fill="none" rx="4" ry="4" style="stroke:#181818;stroke-width:1.0;"/><line style="stroke:#181818;stroke-width:1.0;" x1="171.48" x2="163.48" y1="744.36" y2="744.36"/><line style="stroke:#181818;stroke-width:1.0;" x1="171.48" x2="163.48" y1="741.36" y2="741.36"/><line style="stroke:#181818;stroke-width:1.0;" x1="167.48" x2="167.48" y1="740.36" y2="748.36"/></g><!--link PaymentStatus to Payment--><g id="link_PaymentStatus_Payment"><path codeLine="56" d="M167.48,104.15 C167.48,124.2 167.48,123.02 167.48,145.68 " fill="none" id="PaymentStatus-Payment" style="stroke:#181818;stroke-width:1.0;"/><line style="stroke:#181818;stroke-width:1.0;" x1="163.48" x2="171.48" y1="100.15" y2="100.15"/><line style="stroke:#181818;stroke-width:1.0;" x1="163.48" x2="171.48" y1="103.15" y2="103.15"/><line style="stroke:#181818;stroke-width:1.0;" x1="167.48" x2="167.48" y1="104.15" y2="96.15"/><line style="stroke:#181818;stroke-width:1.0;" x1="167.48" x2="173.48" y1="155.68" y2="163.68"/><line style="stroke:#181818;stroke-width:1.0;" x1="167.48" x2="161.48" y1="155.68" y2="163.68"/><line style="stroke:#181818;stroke-width:1.0;" x1="167.48" x2="167.48" y1="155.68" y2="163.68"/><ellipse cx="167.48" cy="149.68" fill="none" rx="4" ry="4" style="stroke:#181818;stroke-width:1.0;"/></g><!--link Payment to Account--><g id="link_Payment_Account"><path codeLine="58" d="M167.48,311.63 C167.48,330.83 167.48,325.89 167.48,345.09 " fill="none" id="Payment-Account" style="stroke:#181818;stroke-width:1.0;"/><line style="stroke:#181818;stroke-width:1.0;" x1="167.48" x2="161.48" y1="301.63" y2="293.63"/><line style="stroke:#181818;stroke-width:1.0;" x1="167.48" x2="173.48" y1="301.63" y2="293.63"/><line style="stroke:#181818;stroke-width:1.0;" x1="167.48" x2="167.48" y1="301.63" y2="293.63"/><ellipse cx="167.48" cy="307.63" fill="none" rx="4" ry="4" style="stroke:#181818;stroke-width:1.0;"/><line style="stroke:#181818;stroke-width:1.0;" x1="171.48" x2="163.48" y1="349.09" y2="349.09"/><line style="stroke:#181818;stroke-width:1.0;" x1="171.48" x2="163.48" y1="346.09" y2="346.09"/><line style="stroke:#181818;stroke-width:1.0;" x1="167.48" x2="167.48" y1="345.09" y2="353.09"/></g><!--SRC=[bPDDIyD048Rl-HLx4QgGWnvp4r4GKHJfJGZRP6iNajsItOh52YOHiNWJFn0yU2ieM454lVXd1l8xd7mqJJyyU4acpyxiE_DkbWdDTPViTnhA2NXRSod8YK784k4klampYzkTXiTLYmKsTqbjOyigGOsxYujPZigtE1edZKabIzD0soxLp2Bf4o4XJBYJ21KzAaenZFCTJWs3vGtl8lj_exNwpkPUVTrQpfiHr6TaYZbIQOiq-24Nkgf7kpw6SoHzANJBRih0RkSvbS4ACZDSWT4CtL5MrkWK73j67KTsa1S35P_JVgpcU4v_wP1Pm7pAFPkwRi2Kcd6hUeQDdCnClv-rzfS6fWkf6GduOGjDMBQIcs7IluNmF7byJhuk3yHA1NrTbhklIT_dIk6ljqsLPa4cq0oaNrgcPHawPRBTPAcfpE4-zKfrZpLHFAqc45v1rCTYZ7uW743uclIlajktvEu1pg9oUbmUmbbu823wWFWEec-8XX0_GtmFqIV40uZViPOSamK2qNNAC2M-WFW9mfVHI1UufM5CNAHJQPgztkXiZD4PzNgcAKycxjpSklGVDoQjBqeBQ8nMfvH-0G00]--></g></svg>