<svg xmlns="http://www.w3.org/2000/svg" xmlns:xlink="http://www.w3.org/1999/xlink" contentStyleType="text/css" height="868px" preserveAspectRatio="none" style="width:1048px;height:868px;background:#FFFFFF;" version="1.1" viewBox="0 0 1048 868" width="1048px" zoomAndPan="magnify"><defs/><g><!--class Publisher--><g id="elem_Publisher"><rect codeLine="1" fill="#F1F1F1" height="64.2969" id="Publisher" rx="2.5" ry="2.5" style="stroke:#181818;stroke-width:0.5;" width="96.5176" x="7" y="583.6"/><ellipse cx="22" cy="599.6" fill="#ADD1B2" rx="11" ry="11" style="stroke:#181818;stroke-width:1.0;"/><path d="M26.1094,605.6 L18.3906,605.6 L18.3906,593.2094 L26.1094,593.2094 L26.1094,595.3656 L20.8438,595.3656 L20.8438,598.0375 L25.6094,598.0375 L25.6094,600.1938 L20.8438,600.1938 L20.8438,603.4438 L26.1094,603.4438 L26.1094,605.6 Z " fill="#000000"/><text fill="#000000" font-family="sans-serif" font-size="14" lengthAdjust="spacing" textLength="64.5176" x="36" y="604.4467">Publisher</text><line style="stroke:#181818;stroke-width:0.5;" x1="8" x2="102.5176" y1="615.6" y2="615.6"/><ellipse cx="18" cy="629.2484" fill="#000000" rx="3" ry="3" style="stroke:#000000;stroke-width:1.0;"/><text fill="#000000" font-family="sans-serif" font-size="14" lengthAdjust="spacing" textLength="12.7764" x="27" y="632.5951">id</text><line style="stroke:#181818;stroke-width:1.0;" x1="8" x2="102.5176" y1="639.8969" y2="639.8969"/></g><!--class Subscriber--><g id="elem_Subscriber"><rect codeLine="6" fill="#F1F1F1" height="64.2969" id="Subscriber" rx="2.5" ry="2.5" style="stroke:#181818;stroke-width:0.5;" width="106.5391" x="424.99" y="583.6"/><ellipse cx="439.99" cy="599.6" fill="#ADD1B2" rx="11" ry="11" style="stroke:#181818;stroke-width:1.0;"/><path d="M444.0994,605.6 L436.3806,605.6 L436.3806,593.2094 L444.0994,593.2094 L444.0994,595.3656 L438.8338,595.3656 L438.8338,598.0375 L443.5994,598.0375 L443.5994,600.1938 L438.8338,600.1938 L438.8338,603.4438 L444.0994,603.4438 L444.0994,605.6 Z " fill="#000000"/><text fill="#000000" font-family="sans-serif" font-size="14" lengthAdjust="spacing" textLength="74.5391" x="453.99" y="604.4467">Subscriber</text><line style="stroke:#181818;stroke-width:0.5;" x1="425.99" x2="530.5291" y1="615.6" y2="615.6"/><ellipse cx="435.99" cy="629.2484" fill="#000000" rx="3" ry="3" style="stroke:#000000;stroke-width:1.0;"/><text fill="#000000" font-family="sans-serif" font-size="14" lengthAdjust="spacing" textLength="12.7764" x="444.99" y="632.5951">id</text><line style="stroke:#181818;stroke-width:1.0;" x1="425.99" x2="530.5291" y1="639.8969" y2="639.8969"/></g><!--class Subscription--><g id="elem_Subscription"><rect codeLine="11" fill="#F1F1F1" height="145.7813" id="Subscription" rx="2.5" ry="2.5" style="stroke:#181818;stroke-width:0.5;" width="251.4902" x="138.51" y="542.86"/><ellipse cx="216.5115" cy="558.86" fill="#ADD1B2" rx="11" ry="11" style="stroke:#181818;stroke-width:1.0;"/><path d="M220.6208,564.86 L212.9021,564.86 L212.9021,552.4694 L220.6208,552.4694 L220.6208,554.6256 L215.3552,554.6256 L215.3552,557.2975 L220.1208,557.2975 L220.1208,559.4538 L215.3552,559.4538 L215.3552,562.7038 L220.6208,562.7038 L220.6208,564.86 Z " fill="#000000"/><text fill="#000000" font-family="sans-serif" font-size="14" lengthAdjust="spacing" textLength="86.9873" x="237.0115" y="563.7067">Subscription</text><line style="stroke:#181818;stroke-width:0.5;" x1="139.51" x2="389.0002" y1="574.86" y2="574.86"/><ellipse cx="149.51" cy="588.5084" fill="#000000" rx="3" ry="3" style="stroke:#000000;stroke-width:1.0;"/><text fill="#000000" font-family="sans-serif" font-size="14" lengthAdjust="spacing" textLength="12.7764" x="158.51" y="591.8551">id</text><line style="stroke:#181818;stroke-width:1.0;" x1="139.51" x2="389.0002" y1="599.1569" y2="599.1569"/><ellipse cx="149.51" cy="612.8053" fill="#000000" rx="3" ry="3" style="stroke:#000000;stroke-width:1.0;"/><text fill="#000000" font-family="sans-serif" font-size="14" lengthAdjust="spacing" textLength="210.7246" x="158.51" y="616.152">publisher_id (FK:publisher(id))</text><ellipse cx="149.51" cy="629.1022" fill="#000000" rx="3" ry="3" style="stroke:#000000;stroke-width:1.0;"/><text fill="#000000" font-family="sans-serif" font-size="14" lengthAdjust="spacing" textLength="225.4902" x="158.51" y="632.4489">subscriver_id (FK:subscriver(id))</text><ellipse cx="149.51" cy="645.3991" fill="#000000" rx="3" ry="3" style="stroke:#000000;stroke-width:1.0;"/><text fill="#000000" font-family="sans-serif" font-size="14" lengthAdjust="spacing" textLength="111.9111" x="158.51" y="648.7457">start_date: date</text><text fill="#000000" font-family="sans-serif" font-size="14" lengthAdjust="spacing" textLength="105.6768" x="158.51" y="665.0426">end_date: date</text><text fill="#000000" font-family="sans-serif" font-size="14" lengthAdjust="spacing" textLength="141.2578" x="158.51" y="681.3395">plan_id (FK:plan(id))</text></g><!--class Plan--><g id="elem_Plan"><rect codeLine="21" fill="#F1F1F1" height="113.1875" id="Plan" rx="2.5" ry="2.5" style="stroke:#181818;stroke-width:0.5;" width="316.2334" x="106.14" y="748.64"/><ellipse cx="245.1146" cy="764.64" fill="#ADD1B2" rx="11" ry="11" style="stroke:#181818;stroke-width:1.0;"/><path d="M249.224,770.64 L241.5052,770.64 L241.5052,758.2494 L249.224,758.2494 L249.224,760.4056 L243.9584,760.4056 L243.9584,763.0775 L248.724,763.0775 L248.724,765.2338 L243.9584,765.2338 L243.9584,768.4838 L249.224,768.4838 L249.224,770.64 Z " fill="#000000"/><text fill="#000000" font-family="sans-serif" font-size="14" lengthAdjust="spacing" textLength="29.7842" x="265.6146" y="769.4867">Plan</text><line style="stroke:#181818;stroke-width:0.5;" x1="107.14" x2="421.3734" y1="780.64" y2="780.64"/><ellipse cx="117.14" cy="794.2884" fill="#000000" rx="3" ry="3" style="stroke:#000000;stroke-width:1.0;"/><text fill="#000000" font-family="sans-serif" font-size="14" lengthAdjust="spacing" textLength="12.7764" x="126.14" y="797.6351">id</text><line style="stroke:#181818;stroke-width:1.0;" x1="107.14" x2="421.3734" y1="804.9369" y2="804.9369"/><ellipse cx="117.14" cy="818.5853" fill="#000000" rx="3" ry="3" style="stroke:#000000;stroke-width:1.0;"/><text fill="#000000" font-family="sans-serif" font-size="14" lengthAdjust="spacing" textLength="290.2334" x="126.14" y="821.932">publisher_id (FK:publisher(id))(UNIQUE:1)</text><ellipse cx="117.14" cy="834.8822" fill="#000000" rx="3" ry="3" style="stroke:#000000;stroke-width:1.0;"/><text fill="#000000" font-family="sans-serif" font-size="14" lengthAdjust="spacing" textLength="123.6621" x="126.14" y="838.2289">name (UNIQUE:1)</text><ellipse cx="117.14" cy="851.1791" fill="#000000" rx="3" ry="3" style="stroke:#000000;stroke-width:1.0;"/><text fill="#000000" font-family="sans-serif" font-size="14" lengthAdjust="spacing" textLength="78.1279" x="126.14" y="854.5257">cost: bigint</text></g><!--class Payment--><g id="elem_Payment"><rect codeLine="29" fill="#F1F1F1" height="129.4844" id="Payment" rx="2.5" ry="2.5" style="stroke:#181818;stroke-width:0.5;" width="320.957" x="105.78" y="163.89"/><ellipse cx="231.0486" cy="179.89" fill="#ADD1B2" rx="11" ry="11" style="stroke:#181818;stroke-width:1.0;"/><path d="M235.1579,185.89 L227.4392,185.89 L227.4392,173.4994 L235.1579,173.4994 L235.1579,175.6556 L229.8923,175.6556 L229.8923,178.3275 L234.6579,178.3275 L234.6579,180.4838 L229.8923,180.4838 L229.8923,183.7338 L235.1579,183.7338 L235.1579,185.89 Z " fill="#000000"/><text fill="#000000" font-family="sans-serif" font-size="14" lengthAdjust="spacing" textLength="61.9199" x="251.5486" y="184.7367">Payment</text><line style="stroke:#181818;stroke-width:0.5;" x1="106.78" x2="425.737" y1="195.89" y2="195.89"/><ellipse cx="116.78" cy="209.5384" fill="#000000" rx="3" ry="3" style="stroke:#000000;stroke-width:1.0;"/><text fill="#000000" font-family="sans-serif" font-size="14" lengthAdjust="spacing" textLength="12.7764" x="125.78" y="212.8851">id</text><line style="stroke:#181818;stroke-width:1.0;" x1="106.78" x2="425.737" y1="220.1869" y2="220.1869"/><ellipse cx="116.78" cy="233.8353" fill="#000000" rx="3" ry="3" style="stroke:#000000;stroke-width:1.0;"/><text fill="#000000" font-family="sans-serif" font-size="14" lengthAdjust="spacing" textLength="181.7881" x="125.78" y="237.182">month_for_payment: date</text><text fill="#000000" font-family="sans-serif" font-size="14" lengthAdjust="spacing" textLength="141.668" x="125.78" y="253.4789">payment_date: date</text><ellipse cx="116.78" cy="266.4291" fill="#000000" rx="3" ry="3" style="stroke:#000000;stroke-width:1.0;"/><text fill="#000000" font-family="sans-serif" font-size="14" lengthAdjust="spacing" textLength="294.957" x="125.78" y="269.7757">payment_status: (FK: payment_status(id))</text><ellipse cx="116.78" cy="282.7259" fill="#000000" rx="3" ry="3" style="stroke:#000000;stroke-width:1.0;"/><text fill="#000000" font-family="sans-serif" font-size="14" lengthAdjust="spacing" textLength="192.3496" x="125.78" y="286.0726">account_id (FK:account(id))</text></g><!--class Account--><g id="elem_Account"><rect codeLine="38" fill="#F1F1F1" height="129.4844" id="Account" rx="2.5" ry="2.5" style="stroke:#181818;stroke-width:0.5;" width="247.2314" x="142.64" y="353.38"/><ellipse cx="233.6195" cy="369.38" fill="#ADD1B2" rx="11" ry="11" style="stroke:#181818;stroke-width:1.0;"/><path d="M237.7289,375.38 L230.0101,375.38 L230.0101,362.9894 L237.7289,362.9894 L237.7289,365.1456 L232.4632,365.1456 L232.4632,367.8175 L237.2289,367.8175 L237.2289,369.9738 L232.4632,369.9738 L232.4632,373.2238 L237.7289,373.2238 L237.7289,375.38 Z " fill="#000000"/><text fill="#000000" font-family="sans-serif" font-size="14" lengthAdjust="spacing" textLength="56.7725" x="254.1195" y="374.2267">Account</text><line style="stroke:#181818;stroke-width:0.5;" x1="143.64" x2="388.8714" y1="385.38" y2="385.38"/><ellipse cx="153.64" cy="399.0284" fill="#000000" rx="3" ry="3" style="stroke:#000000;stroke-width:1.0;"/><text fill="#000000" font-family="sans-serif" font-size="14" lengthAdjust="spacing" textLength="12.7764" x="162.64" y="402.3751">id</text><line style="stroke:#181818;stroke-width:1.0;" x1="143.64" x2="388.8714" y1="409.6769" y2="409.6769"/><ellipse cx="153.64" cy="423.3253" fill="#000000" rx="3" ry="3" style="stroke:#000000;stroke-width:1.0;"/><text fill="#000000" font-family="sans-serif" font-size="14" lengthAdjust="spacing" textLength="39.7031" x="162.64" y="426.672">name</text><ellipse cx="153.64" cy="439.6222" fill="#000000" rx="3" ry="3" style="stroke:#000000;stroke-width:1.0;"/><text fill="#000000" font-family="sans-serif" font-size="14" lengthAdjust="spacing" textLength="100.9189" x="162.64" y="442.9689">email_address</text><ellipse cx="153.64" cy="455.9191" fill="#000000" rx="3" ry="3" style="stroke:#000000;stroke-width:1.0;"/><text fill="#000000" font-family="sans-serif" font-size="14" lengthAdjust="spacing" textLength="205.2627" x="162.64" y="459.2657">publisher_id (FK:publisher(id)</text><ellipse cx="153.64" cy="472.2159" fill="#000000" rx="3" ry="3" style="stroke:#000000;stroke-width:1.0;"/><text fill="#000000" font-family="sans-serif" font-size="14" lengthAdjust="spacing" textLength="221.2314" x="162.64" y="475.5626">subscriber_id (FK:subscriber(id)</text></g><!--class PaymentStatus--><g id="elem_PaymentStatus"><rect codeLine="47" fill="#F1F1F1" height="80.5938" id="PaymentStatus" rx="2.5" ry="2.5" style="stroke:#181818;stroke-width:0.5;" width="138.5313" x="196.99" y="15.15"/><ellipse cx="211.99" cy="31.15" fill="#ADD1B2" rx="11" ry="11" style="stroke:#181818;stroke-width:1.0;"/><path d="M216.0994,37.15 L208.3806,37.15 L208.3806,24.7594 L216.0994,24.7594 L216.0994,26.9156 L210.8338,26.9156 L210.8338,29.5875 L215.5994,29.5875 L215.5994,31.7438 L210.8338,31.7438 L210.8338,34.9938 L216.0994,34.9938 L216.0994,37.15 Z " fill="#000000"/><text fill="#000000" font-family="sans-serif" font-size="14" lengthAdjust="spacing" textLength="106.5313" x="225.99" y="35.9967">PaymentStatus</text><line style="stroke:#181818;stroke-width:0.5;" x1="197.99" x2="334.5213" y1="47.15" y2="47.15"/><ellipse cx="207.99" cy="60.7984" fill="#000000" rx="3" ry="3" style="stroke:#000000;stroke-width:1.0;"/><text fill="#000000" font-family="sans-serif" font-size="14" lengthAdjust="spacing" textLength="12.7764" x="216.99" y="64.1451">id</text><line style="stroke:#181818;stroke-width:1.0;" x1="197.99" x2="334.5213" y1="71.4469" y2="71.4469"/><ellipse cx="207.99" cy="85.0953" fill="#000000" rx="3" ry="3" style="stroke:#000000;stroke-width:1.0;"/><text fill="#000000" font-family="sans-serif" font-size="14" lengthAdjust="spacing" textLength="39.7031" x="216.99" y="88.442">name</text></g><g id="elem_GMN9"><path d="M370.93,35.31 L370.93,51.45 L335.74,55.45 L370.93,59.45 L370.93,75.5756 A0,0 0 0 0 370.93,75.5756 L469.581,75.5756 A0,0 0 0 0 469.581,75.5756 L469.581,45.31 L459.581,35.31 L370.93,35.31 A0,0 0 0 0 370.93,35.31 " fill="#FEFFDD" style="stroke:#181818;stroke-width:0.5;"/><path d="M459.581,35.31 L459.581,45.31 L469.581,45.31 L459.581,35.31 " fill="#FEFFDD" style="stroke:#181818;stroke-width:0.5;"/><text fill="#000000" font-family="sans-serif" font-size="13" lengthAdjust="spacing" textLength="77.651" x="376.93" y="52.3769">1:&#25903;&#25173;&#12356;&#26410;&#28168;</text><text fill="#000000" font-family="sans-serif" font-size="13" lengthAdjust="spacing" textLength="64.6509" x="376.93" y="67.5097">2:&#25903;&#25173;&#12356;&#28168;</text></g><!--class CommissionMaster--><g id="elem_CommissionMaster"><rect codeLine="55" fill="#F1F1F1" height="96.8906" id="CommissionMaster" rx="2.5" ry="2.5" style="stroke:#181818;stroke-width:0.5;" width="188.8594" x="852.83" y="7"/><ellipse cx="878.4621" cy="23" fill="#ADD1B2" rx="11" ry="11" style="stroke:#181818;stroke-width:1.0;"/><path d="M882.5715,29 L874.8528,29 L874.8528,16.6094 L882.5715,16.6094 L882.5715,18.7656 L877.3059,18.7656 L877.3059,21.4375 L882.0715,21.4375 L882.0715,23.5938 L877.3059,23.5938 L877.3059,26.8438 L882.5715,26.8438 L882.5715,29 Z " fill="#000000"/><text fill="#000000" font-family="sans-serif" font-size="14" lengthAdjust="spacing" textLength="133.2324" x="894.8248" y="27.8467">CommissionMaster</text><line style="stroke:#181818;stroke-width:0.5;" x1="853.83" x2="1040.6894" y1="39" y2="39"/><text fill="#000000" font-family="sans-serif" font-size="14" lengthAdjust="spacing" textLength="73.623" x="858.83" y="55.9951">from: date</text><text fill="#000000" font-family="sans-serif" font-size="14" lengthAdjust="spacing" textLength="54.79" x="858.83" y="72.292">to: date</text><text fill="#000000" font-family="sans-serif" font-size="14" lengthAdjust="spacing" textLength="176.8594" x="858.83" y="88.5889">commission_fee: decimal</text><line style="stroke:#181818;stroke-width:0.5;" x1="853.83" x2="1040.6894" y1="95.8906" y2="95.8906"/></g><g id="elem_GMN13"><path d="M504.54,35.31 L504.54,75.5756 A0,0 0 0 0 504.54,75.5756 L817.9832,75.5756 A0,0 0 0 0 817.9832,75.5756 L817.9832,59.45 L852.5,55.45 L817.9832,51.45 L817.9832,45.31 L807.9832,35.31 L504.54,35.31 A0,0 0 0 0 504.54,35.31 " fill="#FEFFDD" style="stroke:#181818;stroke-width:0.5;"/><path d="M807.9832,35.31 L807.9832,45.31 L817.9832,45.31 L807.9832,35.31 " fill="#FEFFDD" style="stroke:#181818;stroke-width:0.5;"/><text fill="#000000" font-family="sans-serif" font-size="13" lengthAdjust="spacing" textLength="263.4406" x="510.54" y="52.3769">from &#12363;&#12425; to &#12414;&#12391;&#12398;&#25163;&#25968;&#26009;&#12290;publisher &#12399;&#12289;</text><text fill="#000000" font-family="sans-serif" font-size="13" lengthAdjust="spacing" textLength="292.4432" x="510.54" y="67.5097">&#12469;&#12502;&#12473;&#12463;&#12522;&#12503;&#12471;&#12519;&#12531;&#12398; x % &#12434;&#12471;&#12473;&#12486;&#12512;&#12395;&#25903;&#25173;&#12358;&#12290;</text></g><!--link Publisher to Subscription--><g id="link_Publisher_Subscription"><path codeLine="63" d="M121.83,615.75 C133.32,615.75 118.81,615.75 130.3,615.75 " fill="none" id="Publisher-Subscription" style="stroke:#181818;stroke-width:1.0;"/><line style="stroke:#181818;stroke-width:1.0;" x1="111.83" x2="103.83" y1="615.75" y2="621.75"/><line style="stroke:#181818;stroke-width:1.0;" x1="111.83" x2="103.83" y1="615.75" y2="609.75"/><line style="stroke:#181818;stroke-width:1.0;" x1="111.83" x2="103.83" y1="615.75" y2="615.75"/><ellipse cx="117.83" cy="615.75" fill="none" rx="4" ry="4" style="stroke:#181818;stroke-width:1.0;"/><line style="stroke:#181818;stroke-width:1.0;" x1="134.3" x2="134.3" y1="611.75" y2="619.75"/><line style="stroke:#181818;stroke-width:1.0;" x1="131.3" x2="131.3" y1="611.75" y2="619.75"/><line style="stroke:#181818;stroke-width:1.0;" x1="130.3" x2="138.3" y1="615.75" y2="615.75"/></g><!--link Subscription to Subscriber--><g id="link_Subscription_Subscriber"><path codeLine="64" d="M398.49,615.75 C409.91,615.75 395.34,615.75 406.77,615.75 " fill="none" id="Subscription-Subscriber" style="stroke:#181818;stroke-width:1.0;"/><line style="stroke:#181818;stroke-width:1.0;" x1="394.49" x2="394.49" y1="619.75" y2="611.75"/><line style="stroke:#181818;stroke-width:1.0;" x1="397.49" x2="397.49" y1="619.75" y2="611.75"/><line style="stroke:#181818;stroke-width:1.0;" x1="398.49" x2="390.49" y1="615.75" y2="615.75"/><line style="stroke:#181818;stroke-width:1.0;" x1="416.77" x2="424.77" y1="615.75" y2="609.75"/><line style="stroke:#181818;stroke-width:1.0;" x1="416.77" x2="424.77" y1="615.75" y2="621.75"/><line style="stroke:#181818;stroke-width:1.0;" x1="416.77" x2="424.77" y1="615.75" y2="615.75"/><ellipse cx="410.77" cy="615.75" fill="none" rx="4" ry="4" style="stroke:#181818;stroke-width:1.0;"/></g><!--link Subscription to Plan--><g id="link_Subscription_Plan"><path codeLine="65" d="M264.26,706.97 C264.26,726.67 264.26,721.72 264.26,740.36 " fill="none" id="Subscription-Plan" style="stroke:#181818;stroke-width:1.0;"/><line style="stroke:#181818;stroke-width:1.0;" x1="264.26" x2="258.26" y1="696.97" y2="688.97"/><line style="stroke:#181818;stroke-width:1.0;" x1="264.26" x2="270.26" y1="696.97" y2="688.97"/><line style="stroke:#181818;stroke-width:1.0;" x1="264.26" x2="264.26" y1="696.97" y2="688.97"/><ellipse cx="264.26" cy="702.97" fill="none" rx="4" ry="4" style="stroke:#181818;stroke-width:1.0;"/><line style="stroke:#181818;stroke-width:1.0;" x1="268.26" x2="260.26" y1="744.36" y2="744.36"/><line style="stroke:#181818;stroke-width:1.0;" x1="268.26" x2="260.26" y1="741.36" y2="741.36"/><line style="stroke:#181818;stroke-width:1.0;" x1="264.26" x2="264.26" y1="740.36" y2="748.36"/></g><!--link PaymentStatus to Payment--><g id="link_PaymentStatus_Payment"><path codeLine="66" d="M266.26,104.15 C266.26,124.2 266.26,123.02 266.26,145.68 " fill="none" id="PaymentStatus-Payment" style="stroke:#181818;stroke-width:1.0;"/><line style="stroke:#181818;stroke-width:1.0;" x1="262.26" x2="270.26" y1="100.15" y2="100.15"/><line style="stroke:#181818;stroke-width:1.0;" x1="262.26" x2="270.26" y1="103.15" y2="103.15"/><line style="stroke:#181818;stroke-width:1.0;" x1="266.26" x2="266.26" y1="104.15" y2="96.15"/><line style="stroke:#181818;stroke-width:1.0;" x1="266.26" x2="272.26" y1="155.68" y2="163.68"/><line style="stroke:#181818;stroke-width:1.0;" x1="266.26" x2="260.26" y1="155.68" y2="163.68"/><line style="stroke:#181818;stroke-width:1.0;" x1="266.26" x2="266.26" y1="155.68" y2="163.68"/><ellipse cx="266.26" cy="149.68" fill="none" rx="4" ry="4" style="stroke:#181818;stroke-width:1.0;"/></g><!--link Account to Publisher--><g id="link_Account_Publisher"><path codeLine="68" d="M173.8851,494.9194 C151.9351,513.6094 142.1,522.76 121.26,542.86 C108.09,555.56 99.6304,564.3925 88.0704,577.2425 " fill="none" id="Account-Publisher" style="stroke:#181818;stroke-width:1.0;"/><line style="stroke:#181818;stroke-width:1.0;" x1="181.4989" x2="183.7002" y1="488.4364" y2="478.6817"/><line style="stroke:#181818;stroke-width:1.0;" x1="181.4989" x2="191.4798" y1="488.4364" y2="487.8183"/><line style="stroke:#181818;stroke-width:1.0;" x1="181.4989" x2="187.59" y1="488.4364" y2="483.25"/><ellipse cx="176.9306" cy="492.3262" fill="none" rx="4" ry="4" style="stroke:#181818;stroke-width:1.0;"/><line style="stroke:#181818;stroke-width:1.0;" x1="88.369" x2="82.4215" y1="582.8915" y2="577.541"/><line style="stroke:#181818;stroke-width:1.0;" x1="90.3754" x2="84.4279" y1="580.6612" y2="575.3107"/><line style="stroke:#181818;stroke-width:1.0;" x1="88.0704" x2="82.72" y1="577.2425" y2="583.19"/></g><!--link Account to Subscriber--><g id="link_Account_Subscriber"><path codeLine="69" d="M354.9594,495.1911 C376.4994,514.0611 386.29,523.09 407.26,542.86 C420.92,555.74 429.971,564.686 442.391,577.406 " fill="none" id="Account-Subscriber" style="stroke:#181818;stroke-width:1.0;"/><line style="stroke:#181818;stroke-width:1.0;" x1="347.4375" x2="337.4663" y1="488.6016" y2="487.8431"/><line style="stroke:#181818;stroke-width:1.0;" x1="347.4375" x2="345.3737" y1="488.6016" y2="478.8169"/><line style="stroke:#181818;stroke-width:1.0;" x1="347.4375" x2="341.42" y1="488.6016" y2="483.33"/><ellipse cx="351.9506" cy="492.5553" fill="none" rx="4" ry="4" style="stroke:#181818;stroke-width:1.0;"/><line style="stroke:#181818;stroke-width:1.0;" x1="448.0475" x2="442.3235" y1="577.4735" y2="583.0625"/><line style="stroke:#181818;stroke-width:1.0;" x1="445.9516" x2="440.2277" y1="575.3271" y2="580.916"/><line style="stroke:#181818;stroke-width:1.0;" x1="442.391" x2="447.98" y1="577.406" y2="583.13"/></g><!--link Payment to Account--><g id="link_Payment_Account"><path codeLine="71" d="M266.26,311.63 C266.26,330.83 266.26,325.89 266.26,345.09 " fill="none" id="Payment-Account" style="stroke:#181818;stroke-width:1.0;"/><line style="stroke:#181818;stroke-width:1.0;" x1="266.26" x2="260.26" y1="301.63" y2="293.63"/><line style="stroke:#181818;stroke-width:1.0;" x1="266.26" x2="272.26" y1="301.63" y2="293.63"/><line style="stroke:#181818;stroke-width:1.0;" x1="266.26" x2="266.26" y1="301.63" y2="293.63"/><ellipse cx="266.26" cy="307.63" fill="none" rx="4" ry="4" style="stroke:#181818;stroke-width:1.0;"/><line style="stroke:#181818;stroke-width:1.0;" x1="270.26" x2="262.26" y1="349.09" y2="349.09"/><line style="stroke:#181818;stroke-width:1.0;" x1="270.26" x2="262.26" y1="346.09" y2="346.09"/><line style="stroke:#181818;stroke-width:1.0;" x1="266.26" x2="266.26" y1="345.09" y2="353.09"/></g><!--SRC=[bLFFQzH05BxFNp4NOLlOGptc9g8WKgcKtWfXains1vAP9JChbcwXIQHqwKriHUZ1Mw62Mn2nNlnd7kJly6MJcVne2te9Bz_xtgzltkFI27D8T-P1BFIKf_I8KBef8loEn-IO45uJTkU13bCHM0Pzb38pGia1gR9djeGl8Zfw-Tfpm4X46njhZgvJl6j9BT9X6POQFsA6UxJw8aWfbz4GciLCkc9erndQXdSG-_z6HtjlNhtTU-5jrSr8bd0wm4AbZKS3SI2awTPZXmcQ3vHCb3HJVw9IVrPpkbFKI7-uJGUZ66QklNMZ0x1LZ8MXcYFU3DJy3lLuLiCFz5SDkJPumaJiioXAkTR_e5RtLODxhneqf7iIxQxxVwmHf4jbE4t5mHILslBAJwjoUG7PX_BgfhmxsvTFEz3TcSl-N2M9q1htSvjfqwpo95M9qzKePuQEx4zufJmFHS9YLptc4onUHLF8pY5VOZ1QVo2xXknxkJmlBsxBoozmaZj5qBs2asnVGluJYal8VqE-Wk86Yi-G_uBY6eeV64lVqoSKyeyLXfJY58gla7sp8vrYIaBQYprMuyMYTtsaTugBnLWTTGwuxyNeAhow1T9N7-EgGBkrXDZzi26sWw6ZKygcjAw6-HS0]--></g></svg>