<svg xmlns="http://www.w3.org/2000/svg" xmlns:xlink="http://www.w3.org/1999/xlink" contentStyleType="text/css" height="695px" preserveAspectRatio="none" style="width:942px;height:695px;background:#FFFFFF;" version="1.1" viewBox="0 0 942 695" width="942px" zoomAndPan="magnify"><defs/><g><!--class Publisher--><g id="elem_Publisher"><rect codeLine="1" fill="#F1F1F1" height="96.8906" id="Publisher" rx="2.5" ry="2.5" style="stroke:#181818;stroke-width:0.5;" width="126.9189" x="7" y="394.12"/><ellipse cx="35.6806" cy="410.12" fill="#ADD1B2" rx="11" ry="11" style="stroke:#181818;stroke-width:1.0;"/><path d="M39.79,416.12 L32.0712,416.12 L32.0712,403.7294 L39.79,403.7294 L39.79,405.8856 L34.5244,405.8856 L34.5244,408.5575 L39.29,408.5575 L39.29,410.7138 L34.5244,410.7138 L34.5244,413.9638 L39.79,413.9638 L39.79,416.12 Z " fill="#000000"/><text fill="#000000" font-family="sans-serif" font-size="14" lengthAdjust="spacing" textLength="64.5176" x="52.7208" y="414.9667">Publisher</text><line style="stroke:#181818;stroke-width:0.5;" x1="8" x2="132.9189" y1="426.12" y2="426.12"/><ellipse cx="18" cy="439.7684" fill="#000000" rx="3" ry="3" style="stroke:#000000;stroke-width:1.0;"/><text fill="#000000" font-family="sans-serif" font-size="14" lengthAdjust="spacing" textLength="12.7764" x="27" y="443.1151">id</text><line style="stroke:#181818;stroke-width:1.0;" x1="8" x2="132.9189" y1="450.4169" y2="450.4169"/><ellipse cx="18" cy="464.0653" fill="#000000" rx="3" ry="3" style="stroke:#000000;stroke-width:1.0;"/><text fill="#000000" font-family="sans-serif" font-size="14" lengthAdjust="spacing" textLength="39.7031" x="27" y="467.412">name</text><ellipse cx="18" cy="480.3622" fill="#000000" rx="3" ry="3" style="stroke:#000000;stroke-width:1.0;"/><text fill="#000000" font-family="sans-serif" font-size="14" lengthAdjust="spacing" textLength="100.9189" x="27" y="483.7089">email_address</text></g><!--class Subscriber--><g id="elem_Subscriber"><rect codeLine="8" fill="#F1F1F1" height="96.8906" id="Subscriber" rx="2.5" ry="2.5" style="stroke:#181818;stroke-width:0.5;" width="126.9189" x="455" y="394.12"/><ellipse cx="479.1709" cy="410.12" fill="#ADD1B2" rx="11" ry="11" style="stroke:#181818;stroke-width:1.0;"/><path d="M483.2803,416.12 L475.5616,416.12 L475.5616,403.7294 L483.2803,403.7294 L483.2803,405.8856 L478.0147,405.8856 L478.0147,408.5575 L482.7803,408.5575 L482.7803,410.7138 L478.0147,410.7138 L478.0147,413.9638 L483.2803,413.9638 L483.2803,416.12 Z " fill="#000000"/><text fill="#000000" font-family="sans-serif" font-size="14" lengthAdjust="spacing" textLength="74.5391" x="495.2089" y="414.9667">Subscriber</text><line style="stroke:#181818;stroke-width:0.5;" x1="456" x2="580.9189" y1="426.12" y2="426.12"/><ellipse cx="466" cy="439.7684" fill="#000000" rx="3" ry="3" style="stroke:#000000;stroke-width:1.0;"/><text fill="#000000" font-family="sans-serif" font-size="14" lengthAdjust="spacing" textLength="12.7764" x="475" y="443.1151">id</text><line style="stroke:#181818;stroke-width:1.0;" x1="456" x2="580.9189" y1="450.4169" y2="450.4169"/><ellipse cx="466" cy="464.0653" fill="#000000" rx="3" ry="3" style="stroke:#000000;stroke-width:1.0;"/><text fill="#000000" font-family="sans-serif" font-size="14" lengthAdjust="spacing" textLength="39.7031" x="475" y="467.412">name</text><ellipse cx="466" cy="480.3622" fill="#000000" rx="3" ry="3" style="stroke:#000000;stroke-width:1.0;"/><text fill="#000000" font-family="sans-serif" font-size="14" lengthAdjust="spacing" textLength="100.9189" x="475" y="483.7089">email_address</text></g><!--class Subscription--><g id="elem_Subscription"><rect codeLine="15" fill="#F1F1F1" height="145.7813" id="Subscription" rx="2.5" ry="2.5" style="stroke:#181818;stroke-width:0.5;" width="251.4902" x="168.71" y="369.67"/><ellipse cx="246.7115" cy="385.67" fill="#ADD1B2" rx="11" ry="11" style="stroke:#181818;stroke-width:1.0;"/><path d="M250.8208,391.67 L243.1021,391.67 L243.1021,379.2794 L250.8208,379.2794 L250.8208,381.4356 L245.5552,381.4356 L245.5552,384.1075 L250.3208,384.1075 L250.3208,386.2637 L245.5552,386.2637 L245.5552,389.5137 L250.8208,389.5137 L250.8208,391.67 Z " fill="#000000"/><text fill="#000000" font-family="sans-serif" font-size="14" lengthAdjust="spacing" textLength="86.9873" x="267.2115" y="390.5167">Subscription</text><line style="stroke:#181818;stroke-width:0.5;" x1="169.71" x2="419.2002" y1="401.67" y2="401.67"/><ellipse cx="179.71" cy="415.3184" fill="#000000" rx="3" ry="3" style="stroke:#000000;stroke-width:1.0;"/><text fill="#000000" font-family="sans-serif" font-size="14" lengthAdjust="spacing" textLength="12.7764" x="188.71" y="418.6651">id</text><line style="stroke:#181818;stroke-width:1.0;" x1="169.71" x2="419.2002" y1="425.9669" y2="425.9669"/><ellipse cx="179.71" cy="439.6153" fill="#000000" rx="3" ry="3" style="stroke:#000000;stroke-width:1.0;"/><text fill="#000000" font-family="sans-serif" font-size="14" lengthAdjust="spacing" textLength="210.7246" x="188.71" y="442.962">publisher_id (FK:publisher(id))</text><ellipse cx="179.71" cy="455.9122" fill="#000000" rx="3" ry="3" style="stroke:#000000;stroke-width:1.0;"/><text fill="#000000" font-family="sans-serif" font-size="14" lengthAdjust="spacing" textLength="225.4902" x="188.71" y="459.2589">subscriver_id (FK:subscriver(id))</text><ellipse cx="179.71" cy="472.2091" fill="#000000" rx="3" ry="3" style="stroke:#000000;stroke-width:1.0;"/><text fill="#000000" font-family="sans-serif" font-size="14" lengthAdjust="spacing" textLength="111.9111" x="188.71" y="475.5557">start_date: date</text><text fill="#000000" font-family="sans-serif" font-size="14" lengthAdjust="spacing" textLength="105.6768" x="188.71" y="491.8526">end_date: date</text><text fill="#000000" font-family="sans-serif" font-size="14" lengthAdjust="spacing" textLength="141.2578" x="188.71" y="508.1495">plan_id (FK:plan(id))</text></g><!--class Plan--><g id="elem_Plan"><rect codeLine="25" fill="#F1F1F1" height="113.1875" id="Plan" rx="2.5" ry="2.5" style="stroke:#181818;stroke-width:0.5;" width="316.2334" x="136.34" y="575.45"/><ellipse cx="275.3146" cy="591.45" fill="#ADD1B2" rx="11" ry="11" style="stroke:#181818;stroke-width:1.0;"/><path d="M279.424,597.45 L271.7052,597.45 L271.7052,585.0594 L279.424,585.0594 L279.424,587.2156 L274.1584,587.2156 L274.1584,589.8875 L278.924,589.8875 L278.924,592.0437 L274.1584,592.0437 L274.1584,595.2937 L279.424,595.2937 L279.424,597.45 Z " fill="#000000"/><text fill="#000000" font-family="sans-serif" font-size="14" lengthAdjust="spacing" textLength="29.7842" x="295.8146" y="596.2967">Plan</text><line style="stroke:#181818;stroke-width:0.5;" x1="137.34" x2="451.5734" y1="607.45" y2="607.45"/><ellipse cx="147.34" cy="621.0984" fill="#000000" rx="3" ry="3" style="stroke:#000000;stroke-width:1.0;"/><text fill="#000000" font-family="sans-serif" font-size="14" lengthAdjust="spacing" textLength="12.7764" x="156.34" y="624.4451">id</text><line style="stroke:#181818;stroke-width:1.0;" x1="137.34" x2="451.5734" y1="631.7469" y2="631.7469"/><ellipse cx="147.34" cy="645.3953" fill="#000000" rx="3" ry="3" style="stroke:#000000;stroke-width:1.0;"/><text fill="#000000" font-family="sans-serif" font-size="14" lengthAdjust="spacing" textLength="290.2334" x="156.34" y="648.742">publisher_id (FK:publisher(id))(UNIQUE:1)</text><ellipse cx="147.34" cy="661.6922" fill="#000000" rx="3" ry="3" style="stroke:#000000;stroke-width:1.0;"/><text fill="#000000" font-family="sans-serif" font-size="14" lengthAdjust="spacing" textLength="123.6621" x="156.34" y="665.0389">name (UNIQUE:1)</text><ellipse cx="147.34" cy="677.9891" fill="#000000" rx="3" ry="3" style="stroke:#000000;stroke-width:1.0;"/><text fill="#000000" font-family="sans-serif" font-size="14" lengthAdjust="spacing" textLength="78.1279" x="156.34" y="681.3357">cost: bigint</text></g><!--class Payment--><g id="elem_Payment"><rect codeLine="33" fill="#F1F1F1" height="145.7813" id="Payment" rx="2.5" ry="2.5" style="stroke:#181818;stroke-width:0.5;" width="306.957" x="140.98" y="163.89"/><ellipse cx="259.2486" cy="179.89" fill="#ADD1B2" rx="11" ry="11" style="stroke:#181818;stroke-width:1.0;"/><path d="M263.3579,185.89 L255.6392,185.89 L255.6392,173.4994 L263.3579,173.4994 L263.3579,175.6556 L258.0923,175.6556 L258.0923,178.3275 L262.8579,178.3275 L262.8579,180.4838 L258.0923,180.4838 L258.0923,183.7338 L263.3579,183.7338 L263.3579,185.89 Z " fill="#000000"/><text fill="#000000" font-family="sans-serif" font-size="14" lengthAdjust="spacing" textLength="61.9199" x="279.7486" y="184.7367">Payment</text><line style="stroke:#181818;stroke-width:0.5;" x1="141.98" x2="446.937" y1="195.89" y2="195.89"/><ellipse cx="151.98" cy="209.5384" fill="#000000" rx="3" ry="3" style="stroke:#000000;stroke-width:1.0;"/><text fill="#000000" font-family="sans-serif" font-size="14" lengthAdjust="spacing" textLength="12.7764" x="160.98" y="212.8851">id</text><line style="stroke:#181818;stroke-width:1.0;" x1="141.98" x2="446.937" y1="220.1869" y2="220.1869"/><text fill="#000000" font-family="sans-serif" font-size="14" lengthAdjust="spacing" textLength="181.7881" x="146.98" y="237.182">month_for_payment: date</text><text fill="#000000" font-family="sans-serif" font-size="14" lengthAdjust="spacing" textLength="141.668" x="146.98" y="253.4789">payment_date: date</text><text fill="#000000" font-family="sans-serif" font-size="14" lengthAdjust="spacing" textLength="294.957" x="146.98" y="269.7757">payment_status: (FK: payment_status(id))</text><text fill="#000000" font-family="sans-serif" font-size="14" lengthAdjust="spacing" textLength="205.2627" x="146.98" y="286.0726">publisher_id (FK:publisher(id)</text><text fill="#000000" font-family="sans-serif" font-size="14" lengthAdjust="spacing" textLength="221.2314" x="146.98" y="302.3695">subscriber_id (FK:subscriber(id)</text></g><g id="elem_GMN7"><path d="M482.53,209.08 L482.53,232.78 L448.4,236.78 L482.53,240.78 L482.53,264.4784 A0,0 0 0 0 482.53,264.4784 L692.3983,264.4784 A0,0 0 0 0 692.3983,264.4784 L692.3983,219.08 L682.3983,209.08 L482.53,209.08 A0,0 0 0 0 482.53,209.08 " fill="#FEFFDD" style="stroke:#181818;stroke-width:0.5;"/><path d="M682.3983,209.08 L682.3983,219.08 L692.3983,219.08 L682.3983,209.08 " fill="#FEFFDD" style="stroke:#181818;stroke-width:0.5;"/><text fill="#000000" font-family="sans-serif" font-size="13" lengthAdjust="spacing" textLength="186.1133" x="488.53" y="226.1469">Single Table Inhelitance &#12391;&#12289;</text><text fill="#000000" font-family="sans-serif" font-size="13" lengthAdjust="spacing" textLength="155.4542" x="488.53" y="241.2797">publisher &#12363;&#12425;&#12398;&#25903;&#25173;&#12356;&#12392;</text><text fill="#000000" font-family="sans-serif" font-size="13" lengthAdjust="spacing" textLength="188.8683" x="488.53" y="256.4125">subscriber &#12363;&#12425;&#12398;&#25903;&#25173;&#12356;&#12434;&#25201;&#12358;</text></g><!--class PaymentStatus--><g id="elem_PaymentStatus"><rect codeLine="45" fill="#F1F1F1" height="80.5938" id="PaymentStatus" rx="2.5" ry="2.5" style="stroke:#181818;stroke-width:0.5;" width="138.5313" x="225.19" y="15.15"/><ellipse cx="240.19" cy="31.15" fill="#ADD1B2" rx="11" ry="11" style="stroke:#181818;stroke-width:1.0;"/><path d="M244.2994,37.15 L236.5806,37.15 L236.5806,24.7594 L244.2994,24.7594 L244.2994,26.9156 L239.0338,26.9156 L239.0338,29.5875 L243.7994,29.5875 L243.7994,31.7437 L239.0338,31.7437 L239.0338,34.9937 L244.2994,34.9937 L244.2994,37.15 Z " fill="#000000"/><text fill="#000000" font-family="sans-serif" font-size="14" lengthAdjust="spacing" textLength="106.5313" x="254.19" y="35.9967">PaymentStatus</text><line style="stroke:#181818;stroke-width:0.5;" x1="226.19" x2="362.7213" y1="47.15" y2="47.15"/><ellipse cx="236.19" cy="60.7984" fill="#000000" rx="3" ry="3" style="stroke:#000000;stroke-width:1.0;"/><text fill="#000000" font-family="sans-serif" font-size="14" lengthAdjust="spacing" textLength="12.7764" x="245.19" y="64.1451">id</text><line style="stroke:#181818;stroke-width:1.0;" x1="226.19" x2="362.7213" y1="71.4469" y2="71.4469"/><ellipse cx="236.19" cy="85.0953" fill="#000000" rx="3" ry="3" style="stroke:#000000;stroke-width:1.0;"/><text fill="#000000" font-family="sans-serif" font-size="14" lengthAdjust="spacing" textLength="39.7031" x="245.19" y="88.442">name</text></g><!--class CommissionMaster--><g id="elem_CommissionMaster"><rect codeLine="51" fill="#F1F1F1" height="96.8906" id="CommissionMaster" rx="2.5" ry="2.5" style="stroke:#181818;stroke-width:0.5;" width="188.3057" x="398.31" y="7"/><ellipse cx="423.693" cy="23" fill="#ADD1B2" rx="11" ry="11" style="stroke:#181818;stroke-width:1.0;"/><path d="M427.8023,29 L420.0836,29 L420.0836,16.6094 L427.8023,16.6094 L427.8023,18.7656 L422.5367,18.7656 L422.5367,21.4375 L427.3023,21.4375 L427.3023,23.5938 L422.5367,23.5938 L422.5367,26.8438 L427.8023,26.8438 L427.8023,29 Z " fill="#000000"/><text fill="#000000" font-family="sans-serif" font-size="14" lengthAdjust="spacing" textLength="133.2324" x="440.0003" y="27.8467">CommissionMaster</text><line style="stroke:#181818;stroke-width:0.5;" x1="399.31" x2="585.6157" y1="39" y2="39"/><text fill="#000000" font-family="sans-serif" font-size="14" lengthAdjust="spacing" textLength="126.0615" x="404.31" y="55.9951">from_month: date</text><text fill="#000000" font-family="sans-serif" font-size="14" lengthAdjust="spacing" textLength="107.2285" x="404.31" y="72.292">to_month: date</text><text fill="#000000" font-family="sans-serif" font-size="14" lengthAdjust="spacing" textLength="176.3057" x="404.31" y="88.5889">commission_fee: number</text><line style="stroke:#181818;stroke-width:0.5;" x1="399.31" x2="585.6157" y1="95.8906" y2="95.8906"/></g><g id="elem_GMN12"><path d="M621.74,35.31 L621.74,51.44 L586.86,55.44 L621.74,59.44 L621.74,75.5756 A0,0 0 0 0 621.74,75.5756 L935.1832,75.5756 A0,0 0 0 0 935.1832,75.5756 L935.1832,45.31 L925.1832,35.31 L621.74,35.31 A0,0 0 0 0 621.74,35.31 " fill="#FEFFDD" style="stroke:#181818;stroke-width:0.5;"/><path d="M925.1832,35.31 L925.1832,45.31 L935.1832,45.31 L925.1832,35.31 " fill="#FEFFDD" style="stroke:#181818;stroke-width:0.5;"/><text fill="#000000" font-family="sans-serif" font-size="13" lengthAdjust="spacing" textLength="263.4406" x="627.74" y="52.3769">from &#12363;&#12425; to &#12414;&#12391;&#12398;&#25163;&#25968;&#26009;&#12290;publisher &#12399;&#12289;</text><text fill="#000000" font-family="sans-serif" font-size="13" lengthAdjust="spacing" textLength="292.4432" x="627.74" y="67.5097">&#12469;&#12502;&#12473;&#12463;&#12522;&#12503;&#12471;&#12519;&#12531;&#12398; x % &#12434;&#12471;&#12473;&#12486;&#12512;&#12395;&#25903;&#25173;&#12358;&#12290;</text></g><!--link Publisher to Subscription--><g id="link_Publisher_Subscription"><path codeLine="59" d="M152.33,442.56 C163.7,442.56 149.06,442.56 160.42,442.56 " fill="none" id="Publisher-Subscription" style="stroke:#181818;stroke-width:1.0;"/><line style="stroke:#181818;stroke-width:1.0;" x1="142.33" x2="134.33" y1="442.56" y2="448.56"/><line style="stroke:#181818;stroke-width:1.0;" x1="142.33" x2="134.33" y1="442.56" y2="436.56"/><line style="stroke:#181818;stroke-width:1.0;" x1="142.33" x2="134.33" y1="442.56" y2="442.56"/><ellipse cx="148.33" cy="442.56" fill="none" rx="4" ry="4" style="stroke:#181818;stroke-width:1.0;"/><line style="stroke:#181818;stroke-width:1.0;" x1="164.42" x2="164.42" y1="438.56" y2="446.56"/><line style="stroke:#181818;stroke-width:1.0;" x1="161.42" x2="161.42" y1="438.56" y2="446.56"/><line style="stroke:#181818;stroke-width:1.0;" x1="160.42" x2="168.42" y1="442.56" y2="442.56"/></g><!--link Subscription to Subscriber--><g id="link_Subscription_Subscriber"><path codeLine="60" d="M428.46,442.56 C439.82,442.56 425.17,442.56 436.53,442.56 " fill="none" id="Subscription-Subscriber" style="stroke:#181818;stroke-width:1.0;"/><line style="stroke:#181818;stroke-width:1.0;" x1="424.46" x2="424.46" y1="446.56" y2="438.56"/><line style="stroke:#181818;stroke-width:1.0;" x1="427.46" x2="427.46" y1="446.56" y2="438.56"/><line style="stroke:#181818;stroke-width:1.0;" x1="428.46" x2="420.46" y1="442.56" y2="442.56"/><line style="stroke:#181818;stroke-width:1.0;" x1="446.53" x2="454.53" y1="442.56" y2="436.56"/><line style="stroke:#181818;stroke-width:1.0;" x1="446.53" x2="454.53" y1="442.56" y2="448.56"/><line style="stroke:#181818;stroke-width:1.0;" x1="446.53" x2="454.53" y1="442.56" y2="442.56"/><ellipse cx="440.53" cy="442.56" fill="none" rx="4" ry="4" style="stroke:#181818;stroke-width:1.0;"/></g><!--link Subscription to Plan--><g id="link_Subscription_Plan"><path codeLine="61" d="M294.46,533.78 C294.46,553.48 294.46,548.53 294.46,567.17 " fill="none" id="Subscription-Plan" style="stroke:#181818;stroke-width:1.0;"/><line style="stroke:#181818;stroke-width:1.0;" x1="294.46" x2="288.46" y1="523.78" y2="515.78"/><line style="stroke:#181818;stroke-width:1.0;" x1="294.46" x2="300.46" y1="523.78" y2="515.78"/><line style="stroke:#181818;stroke-width:1.0;" x1="294.46" x2="294.46" y1="523.78" y2="515.78"/><ellipse cx="294.46" cy="529.78" fill="none" rx="4" ry="4" style="stroke:#181818;stroke-width:1.0;"/><line style="stroke:#181818;stroke-width:1.0;" x1="298.46" x2="290.46" y1="571.17" y2="571.17"/><line style="stroke:#181818;stroke-width:1.0;" x1="298.46" x2="290.46" y1="568.17" y2="568.17"/><line style="stroke:#181818;stroke-width:1.0;" x1="294.46" x2="294.46" y1="567.17" y2="575.17"/></g><!--link PaymentStatus to Payment--><g id="link_PaymentStatus_Payment"><path codeLine="62" d="M294.46,103.8 C294.46,123.7 294.46,122.49 294.46,145.65 " fill="none" id="PaymentStatus-Payment" style="stroke:#181818;stroke-width:1.0;"/><line style="stroke:#181818;stroke-width:1.0;" x1="290.46" x2="298.46" y1="99.8" y2="99.8"/><line style="stroke:#181818;stroke-width:1.0;" x1="290.46" x2="298.46" y1="102.8" y2="102.8"/><line style="stroke:#181818;stroke-width:1.0;" x1="294.46" x2="294.46" y1="103.8" y2="95.8"/><line style="stroke:#181818;stroke-width:1.0;" x1="294.46" x2="300.46" y1="155.65" y2="163.65"/><line style="stroke:#181818;stroke-width:1.0;" x1="294.46" x2="288.46" y1="155.65" y2="163.65"/><line style="stroke:#181818;stroke-width:1.0;" x1="294.46" x2="294.46" y1="155.65" y2="163.65"/><ellipse cx="294.46" cy="149.65" fill="none" rx="4" ry="4" style="stroke:#181818;stroke-width:1.0;"/></g><!--link Payment to Publisher--><g id="link_Payment_Publisher"><path codeLine="64" d="M201.8576,322.0253 C171.2776,349.8553 156.3569,363.4157 128.9169,388.3857 " fill="none" id="Payment-Publisher" style="stroke:#181818;stroke-width:1.0;"/><line style="stroke:#181818;stroke-width:1.0;" x1="209.2534" x2="211.1316" y1="315.2946" y2="305.4725"/><line style="stroke:#181818;stroke-width:1.0;" x1="209.2534" x2="219.2084" y1="315.2946" y2="314.3475"/><line style="stroke:#181818;stroke-width:1.0;" x1="209.2534" x2="215.17" y1="315.2946" y2="309.91"/><ellipse cx="204.8159" cy="319.333" fill="none" rx="4" ry="4" style="stroke:#181818;stroke-width:1.0;"/><line style="stroke:#181818;stroke-width:1.0;" x1="128.6506" x2="123.2663" y1="394.0363" y2="388.1194"/><line style="stroke:#181818;stroke-width:1.0;" x1="130.8694" x2="125.4851" y1="392.0172" y2="386.1003"/><line style="stroke:#181818;stroke-width:1.0;" x1="128.9169" x2="123" y1="388.3857" y2="393.77"/></g><!--link Payment to Subscriber--><g id="link_Payment_Subscriber"><path codeLine="65" d="M387.0624,322.0253 C417.6424,349.8553 432.5631,363.4157 460.0031,388.3857 " fill="none" id="Payment-Subscriber" style="stroke:#181818;stroke-width:1.0;"/><line style="stroke:#181818;stroke-width:1.0;" x1="379.6666" x2="369.7116" y1="315.2946" y2="314.3475"/><line style="stroke:#181818;stroke-width:1.0;" x1="379.6666" x2="377.7884" y1="315.2946" y2="305.4725"/><line style="stroke:#181818;stroke-width:1.0;" x1="379.6666" x2="373.75" y1="315.2946" y2="309.91"/><ellipse cx="384.1041" cy="319.333" fill="none" rx="4" ry="4" style="stroke:#181818;stroke-width:1.0;"/><line style="stroke:#181818;stroke-width:1.0;" x1="465.6537" x2="460.2694" y1="388.1194" y2="394.0363"/><line style="stroke:#181818;stroke-width:1.0;" x1="463.4349" x2="458.0506" y1="386.1003" y2="392.0172"/><line style="stroke:#181818;stroke-width:1.0;" x1="460.0031" x2="465.92" y1="388.3857" y2="393.77"/></g><!--SRC=[dLF1Qjj04BtlLyobO1Tyw5NNqa8eBIbERW6nijRsWhHhjEkG40SYgHXCRgL9wQstb1RgXb1AB_sP0Nr7HhArijIqq5wMqTjvCs-UPeMoqfx2_Zo8f9cA1CuOm6CPqZaOb24e7eig436NaS_3C176i7F6n8Oxd0TcbCYW9iF_i6TMQlK0VrOBysK8lUSlF0VqPDZlLpbcK-AuIMgGdIpB4-k7t0eFofD00A72BZIBk7BDADvKQ0Jl4_RlGdk7h_PU7pxpdlITBT31HjfO3m8vaShkzkEdCOM_jOoribD_h1D_jibmCso_suFL8DbWvyQh97R0sgk_Zq89nltnZk71DeNKAsq5978o9Lr3gIQHW0CUqBcdfYAIbgkH04nly28zKgu18PUOhJ3zMhnR5wihJDzW-kb8DVKVoiZU5gjRJ9TTpuRLM7_QoiRYfpgEfJ6qWI-viTiz7YSwzYkJdOTMTu2H8_fZGLwhUKmIk-ENbRQogGH5lygvQO3LPN7rhRZ-W1VPhWFhoXFClcD-ZTbFpDQOVyRyFMO_CB_1_8wuS0AFW0OlCKh9bvX_nFHBxScIIZBMlEfpFLWiMc-DjHxUOZ7GPpilkNrBx99URZvhMqkyabZlAAkl7QLMqBreMjq3]--></g></svg>